<svg width="60" height="60" viewBox="0 0 60 60" fill="none" xmlns="http://www.w3.org/2000/svg">
<rect width="60" height="60" rx="30" fill="white"/>
<path d="M28.2467 21.4119L22.9494 25.5565L19.1155 25.6175C18.5094 25.6273 18.0239 26.1211 18.0239 26.7272V33.4253C18.0239 34.0494 18.5385 34.5516 19.1627 34.5349L22.9494 34.4351L28.2466 38.5797C28.9748 39.1498 30.0401 38.631 30.0401 37.7058V22.2857C30.0401 21.3619 28.9763 20.8418 28.2467 21.4119ZM34.024 25.0281L32.2458 27.1573C33.0919 27.8633 33.576 28.8994 33.576 29.9994C33.576 31.0966 33.0933 32.1313 32.2513 32.8373L34.0337 34.9637C35.5067 33.7292 36.3501 31.9191 36.3501 29.9996C36.3501 28.0757 35.5026 26.2639 34.024 25.0281ZM37.5555 21L35.8577 23.1943C37.9827 24.838 39.202 27.318 39.202 30.0007C39.202 32.6819 37.9841 35.1619 35.8605 36.8057L37.5582 39C40.3657 36.8265 41.9759 33.5476 41.9759 30.0006C41.9745 26.4539 40.3642 23.1735 37.5555 21Z" fill="black"/>
</svg>
