<svg width="162" height="50" viewBox="0 0 162 50" fill="none" xmlns="http://www.w3.org/2000/svg">
<g clip-path="url(#clip0_1341_5151)">
<mask id="path-1-inside-1_1341_5151" fill="white">
<path d="M94.8586 49.7838V46.9191H97.7148C99.7951 46.9191 101.139 45.5756 101.139 43.4962V36.7739C101.139 34.6105 99.3899 32.8521 97.2453 32.8521C95.1008 32.8521 93.2922 34.6006 93.2922 36.7492C93.2922 38.8977 95.1008 40.7253 97.2453 40.7253H99.5777V43.5604H97.2206C93.475 43.5604 90.4311 40.5277 90.4311 36.8035C90.4311 33.0793 93.4898 30.017 97.2453 30.017C101.001 30.017 104.005 33.0102 104.005 36.8282V43.4665C104.005 47.4179 101.643 49.7789 97.6901 49.7789H94.8586V49.7838ZM76.8767 44.0296C73.1163 44.0296 70.0625 40.9623 70.0625 37.1888C70.0625 33.4152 73.1707 30.4862 76.852 30.4862H79.2091V33.3213H76.8767C74.7371 33.3213 72.9236 35.1538 72.9236 37.3271C72.9236 39.5003 74.6976 41.1945 76.8767 41.1945C79.0559 41.1945 80.7706 39.4361 80.7706 37.2727V24.0701H83.6317V37.2184C83.6317 41.0364 80.6619 44.0296 76.8718 44.0296H76.8767ZM142.613 43.5604C139.559 43.5604 137.068 41.0759 137.068 38.0185V24.0701H139.929V38.0185C139.929 39.4707 141.155 40.6956 142.608 40.6956H144.965V43.5604H142.608H142.613ZM132.117 43.5604V36.7739C132.117 34.6105 130.368 32.8521 128.223 32.8521C126.079 32.8521 124.27 34.5858 124.27 36.7195C124.27 38.8533 126.079 40.7253 128.223 40.7253H130.556V43.5604H128.198C124.517 43.5604 121.409 40.4931 121.409 36.8578C121.409 33.2225 124.468 30.017 128.223 30.017C131.979 30.017 134.983 33.0102 134.983 36.8282V43.5554H132.117V43.5604ZM118.034 43.5604C115.553 43.5604 114.071 41.965 114.071 39.2929V33.183H110.805V30.4862H114.071V27.33H116.937V30.4862H120.09V33.183H116.937V39.5398C116.937 40.6561 117.446 40.8636 118.454 40.8636H120.095V43.5604H118.034ZM106.263 43.5604V30.4566L106.347 30.4961C106.767 30.6788 107.202 30.7677 107.682 30.7677C108.161 30.7677 108.63 30.6788 109.041 30.4961L109.125 30.4566V43.5604H106.259H106.263ZM85.8899 43.5604V30.4566L85.9739 30.4961C86.3939 30.6788 86.8288 30.7677 87.3081 30.7677C87.7874 30.7677 88.2569 30.6788 88.667 30.4961L88.751 30.4566V43.5604H85.8899ZM107.682 29.449C106.792 29.449 106.095 28.7426 106.095 27.8388C106.095 26.9349 106.822 26.2533 107.682 26.2533C108.541 26.2533 109.268 26.9793 109.268 27.8388C109.268 28.7426 108.571 29.449 107.682 29.449ZM87.3081 29.449C86.4187 29.449 85.7219 28.7426 85.7219 27.8388C85.7219 26.9349 86.4483 26.2533 87.3081 26.2533C88.1679 26.2533 88.8943 26.9793 88.8943 27.8388C88.8943 28.7426 88.1976 29.449 87.3081 29.449ZM123.815 25.784V12.8284C123.815 9.01035 126.785 6.01717 130.575 6.01717C134.365 6.01717 137.39 9.08444 137.39 12.858C137.39 16.6316 134.281 19.5606 130.6 19.5606H128.243V16.7255H130.575C132.715 16.7255 134.528 14.893 134.528 12.7197C134.528 10.5465 132.754 8.85229 130.575 8.85229C128.396 8.85229 126.681 10.6107 126.681 12.7741V25.784H123.815ZM159.582 19.5606C156.528 19.5606 154.037 17.0761 154.037 14.0187V0.0703125H156.898V14.0187C156.898 15.4709 158.124 16.6958 159.577 16.6958H161.934V19.5606H159.577H159.582ZM149.086 19.5606V12.7741C149.086 10.6107 147.337 8.85229 145.192 8.85229C143.047 8.85229 141.239 10.586 141.239 12.7197C141.239 14.8535 143.047 16.7255 145.192 16.7255H147.524V19.5606H145.167C141.486 19.5606 138.378 16.4933 138.378 12.858C138.378 9.22274 141.437 6.01717 145.192 6.01717C148.948 6.01717 151.952 9.01035 151.952 12.8284V19.5556H149.086V19.5606ZM118.691 19.5606V6.45676L118.775 6.49627C119.195 6.67902 119.63 6.76793 120.104 6.76793C120.579 6.76793 121.053 6.67409 121.463 6.49627L121.547 6.45676V19.5606H118.686H118.691ZM113.849 19.5606V11.8652C113.849 10.1167 112.598 8.74363 111.002 8.74363C109.406 8.74363 108.156 10.1118 108.156 11.8652V19.5606H105.295V11.8652C105.295 8.42258 107.642 6.0221 111.002 6.0221C114.362 6.0221 116.71 8.48185 116.71 11.8652V19.5606H113.849ZM100.615 19.5606V12.7741C100.615 10.6107 98.8661 8.85229 96.7215 8.85229C94.577 8.85229 92.7684 10.586 92.7684 12.7197C92.7684 14.8535 94.577 16.7255 96.7215 16.7255H99.0539V19.5606H96.6968C93.0155 19.5606 89.9073 16.4933 89.9073 12.858C89.9073 9.22274 92.9661 6.01717 96.7215 6.01717C100.477 6.01717 103.481 9.01035 103.481 12.8284V19.5556H100.615V19.5606ZM85.7812 19.5606V11.5837C85.7812 9.98832 84.7139 8.73869 83.35 8.73869C81.9862 8.73869 80.9188 9.98832 80.9188 11.5837V19.5606H78.0528V11.5837C78.0528 9.98832 76.9855 8.73869 75.6216 8.73869C74.2578 8.73869 73.1904 9.98832 73.1904 11.5837V19.5606H70.3244V11.5837C70.3244 8.35837 72.5036 6.01717 75.508 6.01717C77.1386 6.01717 78.5074 6.67409 79.4661 7.91384C80.4148 6.6889 81.8083 6.01717 83.3945 6.01717C86.4285 6.01717 88.6324 8.35837 88.6324 11.5837V19.5606H85.7664H85.7812ZM120.109 5.44915C119.22 5.44915 118.523 4.74284 118.523 3.83896C118.523 2.93508 119.25 2.25346 120.109 2.25346C120.969 2.25346 121.696 2.97953 121.696 3.83896C121.696 4.74284 120.999 5.44915 120.109 5.44915Z"/>
</mask>
<path d="M94.8586 49.7838V46.9191H97.7148C99.7951 46.9191 101.139 45.5756 101.139 43.4962V36.7739C101.139 34.6105 99.3899 32.8521 97.2453 32.8521C95.1008 32.8521 93.2922 34.6006 93.2922 36.7492C93.2922 38.8977 95.1008 40.7253 97.2453 40.7253H99.5777V43.5604H97.2206C93.475 43.5604 90.4311 40.5277 90.4311 36.8035C90.4311 33.0793 93.4898 30.017 97.2453 30.017C101.001 30.017 104.005 33.0102 104.005 36.8282V43.4665C104.005 47.4179 101.643 49.7789 97.6901 49.7789H94.8586V49.7838ZM76.8767 44.0296C73.1163 44.0296 70.0625 40.9623 70.0625 37.1888C70.0625 33.4152 73.1707 30.4862 76.852 30.4862H79.2091V33.3213H76.8767C74.7371 33.3213 72.9236 35.1538 72.9236 37.3271C72.9236 39.5003 74.6976 41.1945 76.8767 41.1945C79.0559 41.1945 80.7706 39.4361 80.7706 37.2727V24.0701H83.6317V37.2184C83.6317 41.0364 80.6619 44.0296 76.8718 44.0296H76.8767ZM142.613 43.5604C139.559 43.5604 137.068 41.0759 137.068 38.0185V24.0701H139.929V38.0185C139.929 39.4707 141.155 40.6956 142.608 40.6956H144.965V43.5604H142.608H142.613ZM132.117 43.5604V36.7739C132.117 34.6105 130.368 32.8521 128.223 32.8521C126.079 32.8521 124.27 34.5858 124.27 36.7195C124.27 38.8533 126.079 40.7253 128.223 40.7253H130.556V43.5604H128.198C124.517 43.5604 121.409 40.4931 121.409 36.8578C121.409 33.2225 124.468 30.017 128.223 30.017C131.979 30.017 134.983 33.0102 134.983 36.8282V43.5554H132.117V43.5604ZM118.034 43.5604C115.553 43.5604 114.071 41.965 114.071 39.2929V33.183H110.805V30.4862H114.071V27.33H116.937V30.4862H120.09V33.183H116.937V39.5398C116.937 40.6561 117.446 40.8636 118.454 40.8636H120.095V43.5604H118.034ZM106.263 43.5604V30.4566L106.347 30.4961C106.767 30.6788 107.202 30.7677 107.682 30.7677C108.161 30.7677 108.63 30.6788 109.041 30.4961L109.125 30.4566V43.5604H106.259H106.263ZM85.8899 43.5604V30.4566L85.9739 30.4961C86.3939 30.6788 86.8288 30.7677 87.3081 30.7677C87.7874 30.7677 88.2569 30.6788 88.667 30.4961L88.751 30.4566V43.5604H85.8899ZM107.682 29.449C106.792 29.449 106.095 28.7426 106.095 27.8388C106.095 26.9349 106.822 26.2533 107.682 26.2533C108.541 26.2533 109.268 26.9793 109.268 27.8388C109.268 28.7426 108.571 29.449 107.682 29.449ZM87.3081 29.449C86.4187 29.449 85.7219 28.7426 85.7219 27.8388C85.7219 26.9349 86.4483 26.2533 87.3081 26.2533C88.1679 26.2533 88.8943 26.9793 88.8943 27.8388C88.8943 28.7426 88.1976 29.449 87.3081 29.449ZM123.815 25.784V12.8284C123.815 9.01035 126.785 6.01717 130.575 6.01717C134.365 6.01717 137.39 9.08444 137.39 12.858C137.39 16.6316 134.281 19.5606 130.6 19.5606H128.243V16.7255H130.575C132.715 16.7255 134.528 14.893 134.528 12.7197C134.528 10.5465 132.754 8.85229 130.575 8.85229C128.396 8.85229 126.681 10.6107 126.681 12.7741V25.784H123.815ZM159.582 19.5606C156.528 19.5606 154.037 17.0761 154.037 14.0187V0.0703125H156.898V14.0187C156.898 15.4709 158.124 16.6958 159.577 16.6958H161.934V19.5606H159.577H159.582ZM149.086 19.5606V12.7741C149.086 10.6107 147.337 8.85229 145.192 8.85229C143.047 8.85229 141.239 10.586 141.239 12.7197C141.239 14.8535 143.047 16.7255 145.192 16.7255H147.524V19.5606H145.167C141.486 19.5606 138.378 16.4933 138.378 12.858C138.378 9.22274 141.437 6.01717 145.192 6.01717C148.948 6.01717 151.952 9.01035 151.952 12.8284V19.5556H149.086V19.5606ZM118.691 19.5606V6.45676L118.775 6.49627C119.195 6.67902 119.63 6.76793 120.104 6.76793C120.579 6.76793 121.053 6.67409 121.463 6.49627L121.547 6.45676V19.5606H118.686H118.691ZM113.849 19.5606V11.8652C113.849 10.1167 112.598 8.74363 111.002 8.74363C109.406 8.74363 108.156 10.1118 108.156 11.8652V19.5606H105.295V11.8652C105.295 8.42258 107.642 6.0221 111.002 6.0221C114.362 6.0221 116.71 8.48185 116.71 11.8652V19.5606H113.849ZM100.615 19.5606V12.7741C100.615 10.6107 98.8661 8.85229 96.7215 8.85229C94.577 8.85229 92.7684 10.586 92.7684 12.7197C92.7684 14.8535 94.577 16.7255 96.7215 16.7255H99.0539V19.5606H96.6968C93.0155 19.5606 89.9073 16.4933 89.9073 12.858C89.9073 9.22274 92.9661 6.01717 96.7215 6.01717C100.477 6.01717 103.481 9.01035 103.481 12.8284V19.5556H100.615V19.5606ZM85.7812 19.5606V11.5837C85.7812 9.98832 84.7139 8.73869 83.35 8.73869C81.9862 8.73869 80.9188 9.98832 80.9188 11.5837V19.5606H78.0528V11.5837C78.0528 9.98832 76.9855 8.73869 75.6216 8.73869C74.2578 8.73869 73.1904 9.98832 73.1904 11.5837V19.5606H70.3244V11.5837C70.3244 8.35837 72.5036 6.01717 75.508 6.01717C77.1386 6.01717 78.5074 6.67409 79.4661 7.91384C80.4148 6.6889 81.8083 6.01717 83.3945 6.01717C86.4285 6.01717 88.6324 8.35837 88.6324 11.5837V19.5606H85.7664H85.7812ZM120.109 5.44915C119.22 5.44915 118.523 4.74284 118.523 3.83896C118.523 2.93508 119.25 2.25346 120.109 2.25346C120.969 2.25346 121.696 2.97953 121.696 3.83896C121.696 4.74284 120.999 5.44915 120.109 5.44915Z" fill="white" stroke="white" strokeWidth="2" mask="url(#path-1-inside-1_1341_5151)"/>
<mask id="path-2-inside-2_1341_5151" fill="white">
<path d="M156.842 0.131294V14.0205C156.842 15.5121 158.087 16.7617 159.584 16.7617H161.882V19.503H159.584C156.565 19.503 154.104 17.0383 154.104 14.0254V0.131294H156.847M120.112 2.31938C120.942 2.31938 121.634 3.01087 121.634 3.84067C121.634 4.72479 120.942 5.39159 120.112 5.39159C119.282 5.39159 118.59 4.72973 118.59 3.84067C118.59 3.01087 119.282 2.31938 120.112 2.31938ZM145.19 6.08309C148.926 6.08309 151.891 9.07133 151.891 12.835V19.503H149.148V12.7807C149.148 10.5926 147.379 8.79473 145.19 8.79473C143.001 8.79473 141.177 10.563 141.177 12.7214C141.177 14.8799 142.976 16.7864 145.19 16.7864H147.458V19.4981H145.16C141.509 19.4981 138.435 16.5098 138.435 12.8597C138.435 9.20963 141.395 6.08309 145.19 6.08309ZM130.578 6.08309C134.368 6.08309 137.333 9.1553 137.333 12.8597C137.333 16.5642 134.259 19.4981 130.608 19.4981H128.31V16.7864H130.578C132.792 16.7864 134.591 14.9046 134.591 12.7214C134.591 10.5383 132.762 8.79473 130.578 8.79473C128.394 8.79473 126.62 10.5926 126.62 12.7807V25.7265H123.878V12.835C123.878 9.07133 126.837 6.08309 130.578 6.08309ZM111.005 6.08309C114.355 6.08309 116.653 8.57247 116.653 11.8669V19.503H113.911V11.8669C113.911 9.98509 112.557 8.68607 111.005 8.68607C109.453 8.68607 108.099 9.98509 108.099 11.8669V19.503H105.357V11.8669C105.357 8.54777 107.625 6.08309 111.005 6.08309ZM96.7243 6.08309C100.46 6.08309 103.425 9.07133 103.425 12.835V19.503H100.682V12.7807C100.682 10.5926 98.9134 8.79473 96.7243 8.79473C94.5353 8.79473 92.7119 10.563 92.7119 12.7214C92.7119 14.8799 94.5106 16.7864 96.7243 16.7864H98.9924V19.4981H96.6947C93.0429 19.4981 89.9694 16.5098 89.9694 12.8597C89.9694 9.20963 92.9293 6.08309 96.7243 6.08309ZM83.4121 6.08309C86.456 6.08309 88.5858 8.4638 88.5858 11.5903V19.503H85.8433V11.5903C85.8433 9.87643 84.682 8.68607 83.3528 8.68607C82.0235 8.68607 80.8623 9.87643 80.8623 11.5903V19.503H78.1198V11.5903C78.1198 9.87643 76.9586 8.68607 75.6293 8.68607C74.3001 8.68607 73.1388 9.87643 73.1388 11.5903V19.503H70.3964V11.5903C70.3964 8.43417 72.5014 6.08309 75.5157 6.08309C77.2057 6.08309 78.5596 6.80422 79.4738 8.01927C80.3879 6.80422 81.7419 6.08309 83.4022 6.08309M121.496 6.55231V19.4981H118.753V6.55231C119.198 6.74495 119.638 6.82891 120.107 6.82891C120.577 6.82891 121.046 6.74495 121.491 6.55231M139.878 24.1311V38.0203C139.878 39.5119 141.123 40.7615 142.62 40.7615H144.918V43.5028H142.62C139.601 43.5028 137.14 41.0381 137.14 38.0252V24.136H139.883M83.5752 24.1311V37.2152C83.5752 40.9789 80.6152 43.9671 76.8746 43.9671C73.1339 43.9671 70.1196 40.8949 70.1196 37.1905C70.1196 33.486 73.1932 30.5521 76.8449 30.5521H79.1427V33.2638H76.8746C74.6608 33.2638 72.8621 35.1456 72.8621 37.3288C72.8621 39.5119 74.6905 41.2555 76.8746 41.2555C79.0587 41.2555 80.8327 39.4576 80.8327 37.2695V24.1262H83.5752M107.684 26.3192C108.515 26.3192 109.206 27.0107 109.206 27.8405C109.206 28.7246 108.515 29.3914 107.684 29.3914C106.854 29.3914 106.162 28.7295 106.162 27.8405C106.162 27.0107 106.854 26.3192 107.684 26.3192ZM87.3109 26.3192C88.141 26.3192 88.8328 27.0107 88.8328 27.8405C88.8328 28.7246 88.141 29.3914 87.3109 29.3914C86.4807 29.3914 85.7889 28.7295 85.7889 27.8405C85.7889 27.0107 86.4807 26.3192 87.3109 26.3192ZM116.875 27.3959V30.5521H120.033V33.1255H116.875V39.5465C116.875 40.6825 117.399 40.9295 118.452 40.9295H120.028V43.5028H118.037C115.433 43.5028 114.133 41.7346 114.133 39.2995V33.1304H110.867V30.5571H114.133V27.4009H116.875M128.221 30.0829C131.957 30.0829 134.922 33.0711 134.922 36.8348V43.5028H132.179V36.7805C132.179 34.5924 130.41 32.7945 128.221 32.7945C126.032 32.7945 124.209 34.5628 124.209 36.7212C124.209 38.8797 126.007 40.7862 128.221 40.7862H130.489V43.4979H128.191C124.54 43.4979 121.466 40.5096 121.466 36.8595C121.466 33.2094 124.426 30.0829 128.221 30.0829ZM97.2481 30.0829C100.984 30.0829 103.949 33.0711 103.949 36.8348V43.4732C103.949 47.5382 101.429 49.7263 97.6928 49.7263H94.9256V46.985H97.7225C99.7979 46.985 101.211 45.6563 101.211 43.4979V36.7756C101.211 34.5875 99.4421 32.7896 97.253 32.7896C95.064 32.7896 93.2406 34.5578 93.2406 36.7459C93.2406 38.934 95.0393 40.7862 97.253 40.7862H99.5212V43.4979H97.2234C93.5717 43.4979 90.4981 40.5096 90.4981 36.8003C90.4981 33.0909 93.458 30.0779 97.253 30.0779M109.068 30.5521V43.4979H106.326V30.5521C106.77 30.7447 107.21 30.8287 107.679 30.8287C108.149 30.8287 108.618 30.7447 109.063 30.5521M88.6945 30.5521V43.4979H85.952V30.5521C86.3967 30.7447 86.8365 30.8287 87.3059 30.8287C87.7754 30.8287 88.2448 30.7447 88.6895 30.5521M156.965 0.0078125H153.976V14.0205C153.976 17.1075 156.491 19.6216 159.579 19.6216H162.001V16.6333H159.579C158.161 16.6333 156.96 15.4331 156.96 14.0155V0.0078125H156.965ZM120.112 2.1959C119.218 2.1959 118.467 2.9516 118.467 3.84067C118.467 4.77913 119.188 5.51507 120.112 5.51507C121.036 5.51507 121.758 4.77913 121.758 3.84067C121.758 2.90221 121.002 2.1959 120.112 2.1959ZM145.19 5.95961C141.4 5.95961 138.311 9.05651 138.311 12.8597C138.311 16.663 141.449 19.6216 145.16 19.6216H147.582V16.663H145.19C143.08 16.663 141.301 14.8552 141.301 12.7214C141.301 10.5877 143.045 8.91821 145.19 8.91821C147.334 8.91821 149.024 10.6519 149.024 12.7807V19.6265H152.014V12.835C152.014 8.98242 149.02 5.95961 145.19 5.95961ZM130.578 5.95961C126.753 5.95961 123.754 8.97749 123.754 12.835V25.85H126.744V12.7807C126.744 10.6519 128.463 8.91821 130.578 8.91821C132.693 8.91821 134.467 10.6272 134.467 12.7214C134.467 14.8157 132.688 16.663 130.578 16.663H128.186V19.6216H130.608C134.319 19.6216 137.457 16.5247 137.457 12.8597C137.457 9.19481 134.373 5.95961 130.578 5.95961ZM111.005 5.95961C107.605 5.95961 105.233 8.38972 105.233 11.8669V19.6265H108.223V11.8669C108.223 10.153 109.444 8.80955 111.005 8.80955C112.567 8.80955 113.787 10.153 113.787 11.8669V19.6265H116.777V11.8669C116.777 8.44405 114.35 5.95961 111.005 5.95961ZM96.7243 5.95961C92.9342 5.95961 89.8458 9.05651 89.8458 12.8597C89.8458 16.663 92.9836 19.6216 96.6947 19.6216H99.116V16.663H96.7243C94.6143 16.663 92.8354 14.8552 92.8354 12.7214C92.8354 10.5877 94.5797 8.91821 96.7243 8.91821C98.8689 8.91821 100.559 10.6519 100.559 12.7807V19.6265H103.548V12.835C103.548 8.98242 100.554 5.95961 96.7243 5.95961ZM83.4121 5.95961C81.8308 5.95961 80.4423 6.61652 79.4837 7.81676C78.5151 6.60171 77.1464 5.95961 75.5256 5.95961C72.4866 5.95961 70.2827 8.3255 70.2827 11.5903V19.6265H73.2723V11.5903C73.2723 10.0295 74.31 8.80955 75.6392 8.80955C76.9685 8.80955 78.0062 10.0295 78.0062 11.5903V19.6265H80.9957V11.5903C80.9957 10.0295 82.0334 8.80955 83.3627 8.80955C84.6919 8.80955 85.7296 10.0295 85.7296 11.5903V19.6265H88.7192V11.5903C88.7192 8.33044 86.4906 5.95961 83.422 5.95961H83.4121ZM121.619 6.36462L121.446 6.43871C121.041 6.61653 120.591 6.70543 120.112 6.70543C119.633 6.70543 119.218 6.61653 118.808 6.43871L118.635 6.36462V19.6265H121.624V6.36462H121.619ZM140.001 24.0076H137.012V38.0203C137.012 41.1073 139.527 43.6214 142.615 43.6214H145.037V40.6331H142.615C141.197 40.6331 139.996 39.4329 139.996 38.0153V24.0027L140.001 24.0076ZM83.6987 24.0076H80.7091V37.2744C80.7091 39.4032 78.9895 41.1369 76.8746 41.1369C74.7596 41.1369 72.9857 39.4279 72.9857 37.3337C72.9857 35.2395 74.7646 33.3922 76.8746 33.3922H79.2662V30.4336H76.8449C73.1339 30.4336 69.9961 33.5305 69.9961 37.1954C69.9961 40.8603 73.0796 44.0955 76.8746 44.0955C80.6696 44.0955 83.6987 41.0776 83.6987 37.2201V24.0126V24.0076ZM107.684 26.1957C106.79 26.1957 106.039 26.9514 106.039 27.8405C106.039 28.7789 106.76 29.5149 107.684 29.5149C108.608 29.5149 109.33 28.7789 109.33 27.8405C109.33 26.902 108.574 26.1957 107.684 26.1957ZM87.3109 26.1957C86.4165 26.1957 85.6654 26.9514 85.6654 27.8405C85.6654 28.7789 86.3868 29.5149 87.3109 29.5149C88.2349 29.5149 88.9564 28.7789 88.9564 27.8405C88.9564 26.902 88.2003 26.1957 87.3109 26.1957ZM116.999 27.2725H114.009V30.4286H110.743V33.2489H114.009V39.2946C114.009 42.0062 115.517 43.6214 118.037 43.6214H120.152V40.8011H118.452C117.468 40.8011 116.999 40.6134 116.999 39.5415V33.244H120.157V30.4237H116.999V27.2675V27.2725ZM128.221 29.9594C124.431 29.9594 121.343 33.0563 121.343 36.8595C121.343 40.6628 124.48 43.6214 128.191 43.6214H130.613V40.6628H128.221C126.111 40.6628 124.332 38.855 124.332 36.7212C124.332 34.5875 126.076 32.918 128.221 32.918C130.366 32.918 132.056 34.6517 132.056 36.7805V43.6263H135.045V36.8348C135.045 32.9822 132.051 29.9594 128.221 29.9594ZM97.2481 29.9594C93.458 29.9594 90.3696 33.0316 90.3696 36.8052C90.3696 40.5788 93.4432 43.6263 97.2185 43.6263H99.6398V40.6677H97.2481C95.1381 40.6677 93.3592 38.8747 93.3592 36.7509C93.3592 34.627 95.1035 32.918 97.2481 32.918C99.3927 32.918 101.083 34.6517 101.083 36.7805V43.5028C101.083 45.5477 99.7633 46.8664 97.7175 46.8664H94.7972V49.8547H97.6879C101.681 49.8547 104.067 47.469 104.067 43.4781V36.8398C104.067 32.9872 101.073 29.9643 97.2432 29.9643L97.2481 29.9594ZM109.192 30.3644L109.019 30.4385C108.613 30.6163 108.164 30.7052 107.684 30.7052C107.205 30.7052 106.79 30.6163 106.38 30.4385L106.207 30.3644V43.6263H109.196V30.3644H109.192ZM88.818 30.3644L88.6451 30.4385C88.2399 30.6163 87.7902 30.7052 87.3109 30.7052C86.8316 30.7052 86.4165 30.6163 86.0063 30.4385L85.8334 30.3644V43.6263H88.823V30.3644H88.818Z"/>
</mask>
<path d="M156.842 0.131294V14.0205C156.842 15.5121 158.087 16.7617 159.584 16.7617H161.882V19.503H159.584C156.565 19.503 154.104 17.0383 154.104 14.0254V0.131294H156.847M120.112 2.31938C120.942 2.31938 121.634 3.01087 121.634 3.84067C121.634 4.72479 120.942 5.39159 120.112 5.39159C119.282 5.39159 118.59 4.72973 118.59 3.84067C118.59 3.01087 119.282 2.31938 120.112 2.31938ZM145.19 6.08309C148.926 6.08309 151.891 9.07133 151.891 12.835V19.503H149.148V12.7807C149.148 10.5926 147.379 8.79473 145.19 8.79473C143.001 8.79473 141.177 10.563 141.177 12.7214C141.177 14.8799 142.976 16.7864 145.19 16.7864H147.458V19.4981H145.16C141.509 19.4981 138.435 16.5098 138.435 12.8597C138.435 9.20963 141.395 6.08309 145.19 6.08309ZM130.578 6.08309C134.368 6.08309 137.333 9.1553 137.333 12.8597C137.333 16.5642 134.259 19.4981 130.608 19.4981H128.31V16.7864H130.578C132.792 16.7864 134.591 14.9046 134.591 12.7214C134.591 10.5383 132.762 8.79473 130.578 8.79473C128.394 8.79473 126.62 10.5926 126.62 12.7807V25.7265H123.878V12.835C123.878 9.07133 126.837 6.08309 130.578 6.08309ZM111.005 6.08309C114.355 6.08309 116.653 8.57247 116.653 11.8669V19.503H113.911V11.8669C113.911 9.98509 112.557 8.68607 111.005 8.68607C109.453 8.68607 108.099 9.98509 108.099 11.8669V19.503H105.357V11.8669C105.357 8.54777 107.625 6.08309 111.005 6.08309ZM96.7243 6.08309C100.46 6.08309 103.425 9.07133 103.425 12.835V19.503H100.682V12.7807C100.682 10.5926 98.9134 8.79473 96.7243 8.79473C94.5353 8.79473 92.7119 10.563 92.7119 12.7214C92.7119 14.8799 94.5106 16.7864 96.7243 16.7864H98.9924V19.4981H96.6947C93.0429 19.4981 89.9694 16.5098 89.9694 12.8597C89.9694 9.20963 92.9293 6.08309 96.7243 6.08309ZM83.4121 6.08309C86.456 6.08309 88.5858 8.4638 88.5858 11.5903V19.503H85.8433V11.5903C85.8433 9.87643 84.682 8.68607 83.3528 8.68607C82.0235 8.68607 80.8623 9.87643 80.8623 11.5903V19.503H78.1198V11.5903C78.1198 9.87643 76.9586 8.68607 75.6293 8.68607C74.3001 8.68607 73.1388 9.87643 73.1388 11.5903V19.503H70.3964V11.5903C70.3964 8.43417 72.5014 6.08309 75.5157 6.08309C77.2057 6.08309 78.5596 6.80422 79.4738 8.01927C80.3879 6.80422 81.7419 6.08309 83.4022 6.08309M121.496 6.55231V19.4981H118.753V6.55231C119.198 6.74495 119.638 6.82891 120.107 6.82891C120.577 6.82891 121.046 6.74495 121.491 6.55231M139.878 24.1311V38.0203C139.878 39.5119 141.123 40.7615 142.62 40.7615H144.918V43.5028H142.62C139.601 43.5028 137.14 41.0381 137.14 38.0252V24.136H139.883M83.5752 24.1311V37.2152C83.5752 40.9789 80.6152 43.9671 76.8746 43.9671C73.1339 43.9671 70.1196 40.8949 70.1196 37.1905C70.1196 33.486 73.1932 30.5521 76.8449 30.5521H79.1427V33.2638H76.8746C74.6608 33.2638 72.8621 35.1456 72.8621 37.3288C72.8621 39.5119 74.6905 41.2555 76.8746 41.2555C79.0587 41.2555 80.8327 39.4576 80.8327 37.2695V24.1262H83.5752M107.684 26.3192C108.515 26.3192 109.206 27.0107 109.206 27.8405C109.206 28.7246 108.515 29.3914 107.684 29.3914C106.854 29.3914 106.162 28.7295 106.162 27.8405C106.162 27.0107 106.854 26.3192 107.684 26.3192ZM87.3109 26.3192C88.141 26.3192 88.8328 27.0107 88.8328 27.8405C88.8328 28.7246 88.141 29.3914 87.3109 29.3914C86.4807 29.3914 85.7889 28.7295 85.7889 27.8405C85.7889 27.0107 86.4807 26.3192 87.3109 26.3192ZM116.875 27.3959V30.5521H120.033V33.1255H116.875V39.5465C116.875 40.6825 117.399 40.9295 118.452 40.9295H120.028V43.5028H118.037C115.433 43.5028 114.133 41.7346 114.133 39.2995V33.1304H110.867V30.5571H114.133V27.4009H116.875M128.221 30.0829C131.957 30.0829 134.922 33.0711 134.922 36.8348V43.5028H132.179V36.7805C132.179 34.5924 130.41 32.7945 128.221 32.7945C126.032 32.7945 124.209 34.5628 124.209 36.7212C124.209 38.8797 126.007 40.7862 128.221 40.7862H130.489V43.4979H128.191C124.54 43.4979 121.466 40.5096 121.466 36.8595C121.466 33.2094 124.426 30.0829 128.221 30.0829ZM97.2481 30.0829C100.984 30.0829 103.949 33.0711 103.949 36.8348V43.4732C103.949 47.5382 101.429 49.7263 97.6928 49.7263H94.9256V46.985H97.7225C99.7979 46.985 101.211 45.6563 101.211 43.4979V36.7756C101.211 34.5875 99.4421 32.7896 97.253 32.7896C95.064 32.7896 93.2406 34.5578 93.2406 36.7459C93.2406 38.934 95.0393 40.7862 97.253 40.7862H99.5212V43.4979H97.2234C93.5717 43.4979 90.4981 40.5096 90.4981 36.8003C90.4981 33.0909 93.458 30.0779 97.253 30.0779M109.068 30.5521V43.4979H106.326V30.5521C106.77 30.7447 107.21 30.8287 107.679 30.8287C108.149 30.8287 108.618 30.7447 109.063 30.5521M88.6945 30.5521V43.4979H85.952V30.5521C86.3967 30.7447 86.8365 30.8287 87.3059 30.8287C87.7754 30.8287 88.2448 30.7447 88.6895 30.5521M156.965 0.0078125H153.976V14.0205C153.976 17.1075 156.491 19.6216 159.579 19.6216H162.001V16.6333H159.579C158.161 16.6333 156.96 15.4331 156.96 14.0155V0.0078125H156.965ZM120.112 2.1959C119.218 2.1959 118.467 2.9516 118.467 3.84067C118.467 4.77913 119.188 5.51507 120.112 5.51507C121.036 5.51507 121.758 4.77913 121.758 3.84067C121.758 2.90221 121.002 2.1959 120.112 2.1959ZM145.19 5.95961C141.4 5.95961 138.311 9.05651 138.311 12.8597C138.311 16.663 141.449 19.6216 145.16 19.6216H147.582V16.663H145.19C143.08 16.663 141.301 14.8552 141.301 12.7214C141.301 10.5877 143.045 8.91821 145.19 8.91821C147.334 8.91821 149.024 10.6519 149.024 12.7807V19.6265H152.014V12.835C152.014 8.98242 149.02 5.95961 145.19 5.95961ZM130.578 5.95961C126.753 5.95961 123.754 8.97749 123.754 12.835V25.85H126.744V12.7807C126.744 10.6519 128.463 8.91821 130.578 8.91821C132.693 8.91821 134.467 10.6272 134.467 12.7214C134.467 14.8157 132.688 16.663 130.578 16.663H128.186V19.6216H130.608C134.319 19.6216 137.457 16.5247 137.457 12.8597C137.457 9.19481 134.373 5.95961 130.578 5.95961ZM111.005 5.95961C107.605 5.95961 105.233 8.38972 105.233 11.8669V19.6265H108.223V11.8669C108.223 10.153 109.444 8.80955 111.005 8.80955C112.567 8.80955 113.787 10.153 113.787 11.8669V19.6265H116.777V11.8669C116.777 8.44405 114.35 5.95961 111.005 5.95961ZM96.7243 5.95961C92.9342 5.95961 89.8458 9.05651 89.8458 12.8597C89.8458 16.663 92.9836 19.6216 96.6947 19.6216H99.116V16.663H96.7243C94.6143 16.663 92.8354 14.8552 92.8354 12.7214C92.8354 10.5877 94.5797 8.91821 96.7243 8.91821C98.8689 8.91821 100.559 10.6519 100.559 12.7807V19.6265H103.548V12.835C103.548 8.98242 100.554 5.95961 96.7243 5.95961ZM83.4121 5.95961C81.8308 5.95961 80.4423 6.61652 79.4837 7.81676C78.5151 6.60171 77.1464 5.95961 75.5256 5.95961C72.4866 5.95961 70.2827 8.3255 70.2827 11.5903V19.6265H73.2723V11.5903C73.2723 10.0295 74.31 8.80955 75.6392 8.80955C76.9685 8.80955 78.0062 10.0295 78.0062 11.5903V19.6265H80.9957V11.5903C80.9957 10.0295 82.0334 8.80955 83.3627 8.80955C84.6919 8.80955 85.7296 10.0295 85.7296 11.5903V19.6265H88.7192V11.5903C88.7192 8.33044 86.4906 5.95961 83.422 5.95961H83.4121ZM121.619 6.36462L121.446 6.43871C121.041 6.61653 120.591 6.70543 120.112 6.70543C119.633 6.70543 119.218 6.61653 118.808 6.43871L118.635 6.36462V19.6265H121.624V6.36462H121.619ZM140.001 24.0076H137.012V38.0203C137.012 41.1073 139.527 43.6214 142.615 43.6214H145.037V40.6331H142.615C141.197 40.6331 139.996 39.4329 139.996 38.0153V24.0027L140.001 24.0076ZM83.6987 24.0076H80.7091V37.2744C80.7091 39.4032 78.9895 41.1369 76.8746 41.1369C74.7596 41.1369 72.9857 39.4279 72.9857 37.3337C72.9857 35.2395 74.7646 33.3922 76.8746 33.3922H79.2662V30.4336H76.8449C73.1339 30.4336 69.9961 33.5305 69.9961 37.1954C69.9961 40.8603 73.0796 44.0955 76.8746 44.0955C80.6696 44.0955 83.6987 41.0776 83.6987 37.2201V24.0126V24.0076ZM107.684 26.1957C106.79 26.1957 106.039 26.9514 106.039 27.8405C106.039 28.7789 106.76 29.5149 107.684 29.5149C108.608 29.5149 109.33 28.7789 109.33 27.8405C109.33 26.902 108.574 26.1957 107.684 26.1957ZM87.3109 26.1957C86.4165 26.1957 85.6654 26.9514 85.6654 27.8405C85.6654 28.7789 86.3868 29.5149 87.3109 29.5149C88.2349 29.5149 88.9564 28.7789 88.9564 27.8405C88.9564 26.902 88.2003 26.1957 87.3109 26.1957ZM116.999 27.2725H114.009V30.4286H110.743V33.2489H114.009V39.2946C114.009 42.0062 115.517 43.6214 118.037 43.6214H120.152V40.8011H118.452C117.468 40.8011 116.999 40.6134 116.999 39.5415V33.244H120.157V30.4237H116.999V27.2675V27.2725ZM128.221 29.9594C124.431 29.9594 121.343 33.0563 121.343 36.8595C121.343 40.6628 124.48 43.6214 128.191 43.6214H130.613V40.6628H128.221C126.111 40.6628 124.332 38.855 124.332 36.7212C124.332 34.5875 126.076 32.918 128.221 32.918C130.366 32.918 132.056 34.6517 132.056 36.7805V43.6263H135.045V36.8348C135.045 32.9822 132.051 29.9594 128.221 29.9594ZM97.2481 29.9594C93.458 29.9594 90.3696 33.0316 90.3696 36.8052C90.3696 40.5788 93.4432 43.6263 97.2185 43.6263H99.6398V40.6677H97.2481C95.1381 40.6677 93.3592 38.8747 93.3592 36.7509C93.3592 34.627 95.1035 32.918 97.2481 32.918C99.3927 32.918 101.083 34.6517 101.083 36.7805V43.5028C101.083 45.5477 99.7633 46.8664 97.7175 46.8664H94.7972V49.8547H97.6879C101.681 49.8547 104.067 47.469 104.067 43.4781V36.8398C104.067 32.9872 101.073 29.9643 97.2432 29.9643L97.2481 29.9594ZM109.192 30.3644L109.019 30.4385C108.613 30.6163 108.164 30.7052 107.684 30.7052C107.205 30.7052 106.79 30.6163 106.38 30.4385L106.207 30.3644V43.6263H109.196V30.3644H109.192ZM88.818 30.3644L88.6451 30.4385C88.2399 30.6163 87.7902 30.7052 87.3109 30.7052C86.8316 30.7052 86.4165 30.6163 86.0063 30.4385L85.8334 30.3644V43.6263H88.823V30.3644H88.818Z" fill="white"/>
<path d="M161.882 16.7617H163.882V14.7617H161.882V16.7617ZM161.882 19.503V21.503H163.882V19.503H161.882ZM154.104 0.131294V-1.86871H152.104V0.131294H154.104ZM151.891 19.503V21.503H153.891V19.503H151.891ZM149.148 19.503H147.148V21.503H149.148V19.503ZM147.458 16.7864H149.458V14.7864H147.458V16.7864ZM147.458 19.4981V21.4981H149.458V19.4981H147.458ZM128.31 19.4981H126.31V21.4981H128.31V19.4981ZM128.31 16.7864V14.7864H126.31V16.7864H128.31ZM126.62 25.7265V27.7265H128.62V25.7265H126.62ZM123.878 25.7265H121.878V27.7265H123.878V25.7265ZM116.653 19.503V21.503H118.653V19.503H116.653ZM113.911 19.503H111.911V21.503H113.911V19.503ZM108.099 19.503V21.503H110.099V19.503H108.099ZM105.357 19.503H103.357V21.503H105.357V19.503ZM103.425 19.503V21.503H105.425V19.503H103.425ZM100.682 19.503H98.6824V21.503H100.682V19.503ZM98.9924 16.7864H100.992V14.7864H98.9924V16.7864ZM98.9924 19.4981V21.4981H100.992V19.4981H98.9924ZM88.5858 19.503V21.503H90.5858V19.503H88.5858ZM85.8433 19.503H83.8433V21.503H85.8433V19.503ZM80.8623 19.503V21.503H82.8623V19.503H80.8623ZM78.1198 19.503H76.1198V21.503H78.1198V19.503ZM73.1388 19.503V21.503H75.1388V19.503H73.1388ZM70.3964 19.503H68.3964V21.503H70.3964V19.503ZM79.4738 8.01927L77.8756 9.22169L79.4738 11.3459L81.072 9.22169L79.4738 8.01927ZM121.496 19.4981V21.4981H123.496V19.4981H121.496ZM118.753 19.4981H116.753V21.4981H118.753V19.4981ZM118.753 6.55231L119.548 4.71707L116.753 3.50648V6.55231H118.753ZM144.918 40.7615H146.918V38.7615H144.918V40.7615ZM144.918 43.5028V45.5028H146.918V43.5028H144.918ZM137.14 24.136V22.136H135.14V24.136H137.14ZM79.1427 30.5521H81.1427V28.5521H79.1427V30.5521ZM79.1427 33.2638V35.2638H81.1427V33.2638H79.1427ZM80.8327 24.1262V22.1262H78.8327V24.1262H80.8327ZM116.875 30.5521H114.875V32.5521H116.875V30.5521ZM120.033 30.5521H122.033V28.5521H120.033V30.5521ZM120.033 33.1255V35.1255H122.033V33.1255H120.033ZM116.875 33.1255V31.1255H114.875V33.1255H116.875ZM120.028 40.9295H122.028V38.9295H120.028V40.9295ZM120.028 43.5028V45.5028H122.028V43.5028H120.028ZM114.133 33.1304H116.133V31.1304H114.133V33.1304ZM110.867 33.1304H108.867V35.1304H110.867V33.1304ZM110.867 30.5571V28.5571H108.867V30.5571H110.867ZM114.133 30.5571V32.5571H116.133V30.5571H114.133ZM114.133 27.4009V25.4009H112.133V27.4009H114.133ZM134.922 43.5028V45.5028H136.922V43.5028H134.922ZM132.179 43.5028H130.179V45.5028H132.179V43.5028ZM130.489 40.7862H132.489V38.7862H130.489V40.7862ZM130.489 43.4979V45.4979H132.489V43.4979H130.489ZM94.9256 49.7263H92.9256V51.7263H94.9256V49.7263ZM94.9256 46.985V44.985H92.9256V46.985H94.9256ZM99.5212 40.7862H101.521V38.7862H99.5212V40.7862ZM99.5212 43.4979V45.4979H101.521V43.4979H99.5212ZM109.068 43.4979V45.4979H111.068V43.4979H109.068ZM106.326 43.4979H104.326V45.4979H106.326V43.4979ZM106.326 30.5521L107.12 28.7169L104.326 27.5063V30.5521H106.326ZM88.6945 43.4979V45.4979H90.6945V43.4979H88.6945ZM85.952 43.4979H83.952V45.4979H85.952V43.4979ZM85.952 30.5521L86.7469 28.7169L83.952 27.5063V30.5521H85.952ZM153.976 0.0078125V-1.99219H151.976V0.0078125H153.976ZM162.001 19.6216V21.6216H164.001V19.6216H162.001ZM162.001 16.6333H164.001V14.6333H162.001V16.6333ZM156.96 0.0078125V-1.99219H154.96V0.0078125H156.96ZM147.582 19.6216V21.6216H149.582V19.6216H147.582ZM147.582 16.663H149.582V14.663H147.582V16.663ZM149.024 19.6265H147.024V21.6265H149.024V19.6265ZM152.014 19.6265V21.6265H154.014V19.6265H152.014ZM123.754 25.85H121.754V27.85H123.754V25.85ZM126.744 25.85V27.85H128.744V25.85H126.744ZM128.186 16.663V14.663H126.186V16.663H128.186ZM128.186 19.6216H126.186V21.6216H128.186V19.6216ZM105.233 19.6265H103.233V21.6265H105.233V19.6265ZM108.223 19.6265V21.6265H110.223V19.6265H108.223ZM113.787 19.6265H111.787V21.6265H113.787V19.6265ZM116.777 19.6265V21.6265H118.777V19.6265H116.777ZM99.116 19.6216V21.6216H101.116V19.6216H99.116ZM99.116 16.663H101.116V14.663H99.116V16.663ZM100.559 19.6265H98.5589V21.6265H100.559V19.6265ZM103.548 19.6265V21.6265H105.548V19.6265H103.548ZM79.4837 7.81676L77.9197 9.06339L79.4821 11.0235L81.0464 9.06492L79.4837 7.81676ZM70.2827 19.6265H68.2827V21.6265H70.2827V19.6265ZM73.2723 19.6265V21.6265H75.2723V19.6265H73.2723ZM78.0062 19.6265H76.0062V21.6265H78.0062V19.6265ZM80.9957 19.6265V21.6265H82.9957V19.6265H80.9957ZM85.7296 19.6265H83.7296V21.6265H85.7296V19.6265ZM88.7192 19.6265V21.6265H90.7192V19.6265H88.7192ZM121.619 6.36462V4.36462H121.209L120.832 4.52622L121.619 6.36462ZM121.446 6.43871L120.659 4.60031L120.651 4.60376L120.643 4.60729L121.446 6.43871ZM118.808 6.43871L119.603 4.60372L119.595 4.6003L118.808 6.43871ZM118.635 6.36462L119.422 4.52621L116.635 3.33205V6.36462H118.635ZM118.635 19.6265H116.635V21.6265H118.635V19.6265ZM121.624 19.6265V21.6265H123.624V19.6265H121.624ZM121.624 6.36462H123.624V4.36462H121.624V6.36462ZM140.001 24.0076V26.0076H144.839L141.414 22.5915L140.001 24.0076ZM137.012 24.0076V22.0076H135.012V24.0076H137.012ZM145.037 43.6214V45.6214H147.037V43.6214H145.037ZM145.037 40.6331H147.037V38.6331H145.037V40.6331ZM139.996 24.0027L141.409 22.5866L137.996 19.1835V24.0027H139.996ZM83.6987 24.0076H85.6987V22.0076H83.6987V24.0076ZM80.7091 24.0076V22.0076H78.7091V24.0076H80.7091ZM79.2662 33.3922V35.3922H81.2662V33.3922H79.2662ZM79.2662 30.4336H81.2662V28.4336H79.2662V30.4336ZM116.999 27.2725V29.2725H118.999V27.2725H116.999ZM114.009 27.2725V25.2725H112.009V27.2725H114.009ZM114.009 30.4286V32.4286H116.009V30.4286H114.009ZM110.743 30.4286V28.4286H108.743V30.4286H110.743ZM110.743 33.2489H108.743V35.2489H110.743V33.2489ZM114.009 33.2489H116.009V31.2489H114.009V33.2489ZM120.152 43.6214V45.6214H122.152V43.6214H120.152ZM120.152 40.8011H122.152V38.8011H120.152V40.8011ZM116.999 33.244V31.244H114.999V33.244H116.999ZM120.157 33.244V35.244H122.157V33.244H120.157ZM120.157 30.4237H122.157V28.4237H120.157V30.4237ZM116.999 30.4237H114.999V32.4237H116.999V30.4237ZM130.613 43.6214V45.6214H132.613V43.6214H130.613ZM130.613 40.6628H132.613V38.6628H130.613V40.6628ZM132.056 43.6263H130.056V45.6263H132.056V43.6263ZM135.045 43.6263V45.6263H137.045V43.6263H135.045ZM97.2481 29.9594L98.6612 31.3747L102.082 27.9594H97.2481V29.9594ZM99.6398 43.6263V45.6263H101.64V43.6263H99.6398ZM99.6398 40.6677H101.64V38.6677H99.6398V40.6677ZM94.7972 46.8664V44.8664H92.7972V46.8664H94.7972ZM94.7972 49.8547H92.7972V51.8547H94.7972V49.8547ZM97.2432 29.9643L95.83 28.549L92.4095 31.9643H97.2432V29.9643ZM109.192 30.3644V28.3644H108.781L108.404 28.526L109.192 30.3644ZM109.019 30.4385L108.231 28.6001L108.223 28.6036L108.215 28.6071L109.019 30.4385ZM106.38 30.4385L107.175 28.6035L107.167 28.6001L106.38 30.4385ZM106.207 30.3644L106.994 28.526L104.207 27.3319V30.3644H106.207ZM106.207 43.6263H104.207V45.6263H106.207V43.6263ZM109.196 43.6263V45.6263H111.196V43.6263H109.196ZM109.196 30.3644H111.196V28.3644H109.196V30.3644ZM88.818 30.3644V28.3644H88.4077L88.0305 28.526L88.818 30.3644ZM88.6451 30.4385L87.8575 28.6001L87.8494 28.6036L87.8414 28.6071L88.6451 30.4385ZM86.0063 30.4385L86.8019 28.6035L86.7939 28.6001L86.0063 30.4385ZM85.8334 30.3644L86.6209 28.526L83.8334 27.3319V30.3644H85.8334ZM85.8334 43.6263H83.8334V45.6263H85.8334V43.6263ZM88.823 43.6263V45.6263H90.823V43.6263H88.823ZM88.823 30.3644H90.823V28.3644H88.823V30.3644ZM154.842 0.131294V14.0205H158.842V0.131294H154.842ZM154.842 14.0205C154.842 16.6152 156.981 18.7617 159.584 18.7617V14.7617C159.193 14.7617 158.842 14.409 158.842 14.0205H154.842ZM159.584 18.7617H161.882V14.7617H159.584V18.7617ZM159.882 16.7617V19.503H163.882V16.7617H159.882ZM161.882 17.503H159.584V21.503H161.882V17.503ZM159.584 17.503C157.67 17.503 156.104 15.9341 156.104 14.0254H152.104C152.104 18.1426 155.46 21.503 159.584 21.503V17.503ZM156.104 14.0254V0.131294H152.104V14.0254H156.104ZM154.104 2.13129H156.847V-1.86871H154.104V2.13129ZM120.112 4.31938C119.962 4.31938 119.844 4.25652 119.771 4.18337C119.697 4.11022 119.634 3.99117 119.634 3.84067H123.634C123.634 1.90548 122.046 0.31938 120.112 0.31938V4.31938ZM119.634 3.84067C119.634 3.62361 119.834 3.39159 120.112 3.39159V7.39159C122.05 7.39159 123.634 5.82598 123.634 3.84067H119.634ZM120.112 3.39159C120.237 3.39159 120.363 3.44388 120.454 3.535C120.549 3.63057 120.59 3.75048 120.59 3.84067H116.59C116.59 5.83514 118.178 7.39159 120.112 7.39159V3.39159ZM120.59 3.84067C120.59 3.99118 120.527 4.11023 120.454 4.18338C120.381 4.25652 120.262 4.31938 120.112 4.31938V0.31938C118.178 0.31938 116.59 1.90547 116.59 3.84067H120.59ZM145.19 8.08309C147.807 8.08309 149.891 10.1613 149.891 12.835H153.891C153.891 7.98131 150.045 4.08309 145.19 4.08309V8.08309ZM149.891 12.835V19.503H153.891V12.835H149.891ZM151.891 17.503H149.148V21.503H151.891V17.503ZM151.148 19.503V12.7807H147.148V19.503H151.148ZM151.148 12.7807C151.148 9.50669 148.502 6.79473 145.19 6.79473V10.7947C146.256 10.7947 147.148 11.6786 147.148 12.7807H151.148ZM145.19 6.79473C141.943 6.79473 139.177 9.41263 139.177 12.7214H143.177C143.177 11.7133 144.059 10.7947 145.19 10.7947V6.79473ZM139.177 12.7214C139.177 15.9328 141.821 18.7864 145.19 18.7864V14.7864C144.132 14.7864 143.177 13.827 143.177 12.7214H139.177ZM145.19 18.7864H147.458V14.7864H145.19V18.7864ZM145.458 16.7864V19.4981H149.458V16.7864H145.458ZM147.458 17.4981H145.16V21.4981H147.458V17.4981ZM145.16 17.4981C142.58 17.4981 140.435 15.372 140.435 12.8597H136.435C136.435 17.6477 140.438 21.4981 145.16 21.4981V17.4981ZM140.435 12.8597C140.435 10.2778 142.535 8.08309 145.19 8.08309V4.08309C140.254 4.08309 136.435 8.14143 136.435 12.8597H140.435ZM130.578 8.08309C133.239 8.08309 135.333 10.2349 135.333 12.8597H139.333C139.333 8.07568 135.498 4.08309 130.578 4.08309V8.08309ZM135.333 12.8597C135.333 15.4157 133.199 17.4981 130.608 17.4981V21.4981C135.32 21.4981 139.333 17.7126 139.333 12.8597H135.333ZM130.608 17.4981H128.31V21.4981H130.608V17.4981ZM130.31 19.4981V16.7864H126.31V19.4981H130.31ZM128.31 18.7864H130.578V14.7864H128.31V18.7864ZM130.578 18.7864C133.94 18.7864 136.591 15.9654 136.591 12.7214H132.591C132.591 13.8438 131.644 14.7864 130.578 14.7864V18.7864ZM136.591 12.7214C136.591 9.37827 133.81 6.79473 130.578 6.79473V10.7947C131.714 10.7947 132.591 11.6983 132.591 12.7214H136.591ZM130.578 6.79473C127.272 6.79473 124.62 9.50505 124.62 12.7807H128.62C128.62 11.6802 129.515 10.7947 130.578 10.7947V6.79473ZM124.62 12.7807V25.7265H128.62V12.7807H124.62ZM126.62 23.7265H123.878V27.7265H126.62V23.7265ZM125.878 25.7265V12.835H121.878V25.7265H125.878ZM125.878 12.835C125.878 10.1604 127.957 8.08309 130.578 8.08309V4.08309C125.717 4.08309 121.878 7.98228 121.878 12.835H125.878ZM111.005 8.08309C113.175 8.08309 114.653 9.60016 114.653 11.8669H118.653C118.653 7.54478 115.535 4.08309 111.005 4.08309V8.08309ZM114.653 11.8669V19.503H118.653V11.8669H114.653ZM116.653 17.503H113.911V21.503H116.653V17.503ZM115.911 19.503V11.8669H111.911V19.503H115.911ZM115.911 11.8669C115.911 8.97679 113.755 6.68607 111.005 6.68607V10.6861C111.358 10.6861 111.911 10.9934 111.911 11.8669H115.911ZM111.005 6.68607C108.255 6.68607 106.099 8.97679 106.099 11.8669H110.099C110.099 10.9934 110.652 10.6861 111.005 10.6861V6.68607ZM106.099 11.8669V19.503H110.099V11.8669H106.099ZM108.099 17.503H105.357V21.503H108.099V17.503ZM107.357 19.503V11.8669H103.357V19.503H107.357ZM107.357 11.8669C107.357 10.6679 107.761 9.73547 108.357 9.11517C108.944 8.50346 109.822 8.08309 111.005 8.08309V4.08309C108.808 4.08309 106.863 4.89506 105.471 6.34548C104.087 7.78731 103.357 9.74684 103.357 11.8669H107.357ZM96.7243 8.08309C99.341 8.08309 101.425 10.1613 101.425 12.835H105.425C105.425 7.98132 101.579 4.08309 96.7243 4.08309V8.08309ZM101.425 12.835V19.503H105.425V12.835H101.425ZM103.425 17.503H100.682V21.503H103.425V17.503ZM102.682 19.503V12.7807H98.6824V19.503H102.682ZM102.682 12.7807C102.682 9.50669 100.036 6.79473 96.7243 6.79473V10.7947C97.7903 10.7947 98.6824 11.6786 98.6824 12.7807H102.682ZM96.7243 6.79473C93.4771 6.79473 90.7119 9.41262 90.7119 12.7214H94.7119C94.7119 11.7133 95.5935 10.7947 96.7243 10.7947V6.79473ZM90.7119 12.7214C90.7119 15.9328 93.355 18.7864 96.7243 18.7864V14.7864C95.6661 14.7864 94.7119 13.827 94.7119 12.7214H90.7119ZM96.7243 18.7864H98.9924V14.7864H96.7243V18.7864ZM96.9924 16.7864V19.4981H100.992V16.7864H96.9924ZM98.9924 17.4981H96.6947V21.4981H98.9924V17.4981ZM96.6947 17.4981C94.1139 17.4981 91.9694 15.372 91.9694 12.8597H87.9694C87.9694 17.6477 91.972 21.4981 96.6947 21.4981V17.4981ZM91.9694 12.8597C91.9694 10.2778 94.0699 8.08309 96.7243 8.08309V4.08309C91.7887 4.08309 87.9694 8.14144 87.9694 12.8597H91.9694ZM83.4121 8.08309C85.2092 8.08309 86.5858 9.42058 86.5858 11.5903H90.5858C90.5858 7.50702 87.7028 4.08309 83.4121 4.08309V8.08309ZM86.5858 11.5903V19.503H90.5858V11.5903H86.5858ZM88.5858 17.503H85.8433V21.503H88.5858V17.503ZM87.8433 19.503V11.5903H83.8433V19.503H87.8433ZM87.8433 11.5903C87.8433 8.99328 85.9957 6.68607 83.3528 6.68607V10.6861C83.4005 10.6861 83.4946 10.7041 83.6039 10.8267C83.7114 10.9473 83.8433 11.19 83.8433 11.5903H87.8433ZM83.3528 6.68607C80.7098 6.68607 78.8623 8.99329 78.8623 11.5903H82.8623C82.8623 11.19 82.9942 10.9473 83.1017 10.8267C83.211 10.7041 83.3051 10.6861 83.3528 10.6861V6.68607ZM78.8623 11.5903V19.503H82.8623V11.5903H78.8623ZM80.8623 17.503H78.1198V21.503H80.8623V17.503ZM80.1198 19.503V11.5903H76.1198V19.503H80.1198ZM80.1198 11.5903C80.1198 8.99329 78.2723 6.68607 75.6293 6.68607V10.6861C75.677 10.6861 75.7711 10.7041 75.8804 10.8267C75.988 10.9473 76.1198 11.19 76.1198 11.5903H80.1198ZM75.6293 6.68607C72.9864 6.68607 71.1388 8.99328 71.1388 11.5903H75.1388C75.1388 11.19 75.2707 10.9473 75.3783 10.8267C75.4876 10.7041 75.5816 10.6861 75.6293 10.6861V6.68607ZM71.1388 11.5903V19.503H75.1388V11.5903H71.1388ZM73.1388 17.503H70.3964V21.503H73.1388V17.503ZM72.3964 19.503V11.5903H68.3964V19.503H72.3964ZM72.3964 11.5903C72.3964 9.37704 73.761 8.08309 75.5157 8.08309V4.08309C71.2418 4.08309 68.3964 7.4913 68.3964 11.5903H72.3964ZM75.5157 8.08309C76.5744 8.08309 77.3375 8.50656 77.8756 9.22169L81.072 6.81685C79.7817 5.10188 77.8369 4.08309 75.5157 4.08309V8.08309ZM81.072 9.22169C81.614 8.50119 82.3798 8.08309 83.4022 8.08309V4.08309C81.1039 4.08309 79.1618 5.10724 77.8756 6.81685L81.072 9.22169ZM119.496 6.55231V19.4981H123.496V6.55231H119.496ZM121.496 17.4981H118.753V21.4981H121.496V17.4981ZM120.753 19.4981V6.55231H116.753V19.4981H120.753ZM117.958 8.38755C118.669 8.69527 119.381 8.82891 120.107 8.82891V4.82891C119.895 4.82891 119.727 4.79462 119.548 4.71707L117.958 8.38755ZM120.107 8.82891C120.816 8.82891 121.56 8.70168 122.286 8.38755L120.696 4.71707C120.532 4.78821 120.337 4.82891 120.107 4.82891V8.82891ZM137.878 24.1311V38.0203H141.878V24.1311H137.878ZM137.878 38.0203C137.878 40.615 140.017 42.7615 142.62 42.7615V38.7615C142.229 38.7615 141.878 38.4088 141.878 38.0203H137.878ZM142.62 42.7615H144.918V38.7615H142.62V42.7615ZM142.918 40.7615V43.5028H146.918V40.7615H142.918ZM144.918 41.5028H142.62V45.5028H144.918V41.5028ZM142.62 41.5028C140.706 41.5028 139.14 39.9339 139.14 38.0252H135.14C135.14 42.1424 138.496 45.5028 142.62 45.5028V41.5028ZM139.14 38.0252V24.136H135.14V38.0252H139.14ZM137.14 26.136H139.883V22.136H137.14V26.136ZM81.5752 24.1311V37.2152H85.5752V24.1311H81.5752ZM81.5752 37.2152C81.5752 39.8898 79.4952 41.9671 76.8746 41.9671V45.9671C81.7353 45.9671 85.5752 42.0679 85.5752 37.2152H81.5752ZM76.8746 41.9671C74.2538 41.9671 72.1196 39.8057 72.1196 37.1905H68.1196C68.1196 41.9841 72.0141 45.9671 76.8746 45.9671V41.9671ZM72.1196 37.1905C72.1196 34.6345 74.2534 32.5521 76.8449 32.5521V28.5521C72.133 28.5521 68.1196 32.3376 68.1196 37.1905H72.1196ZM76.8449 32.5521H79.1427V28.5521H76.8449V32.5521ZM77.1427 30.5521V33.2638H81.1427V30.5521H77.1427ZM79.1427 31.2638H76.8746V35.2638H79.1427V31.2638ZM76.8746 31.2638C73.513 31.2638 70.8621 34.0848 70.8621 37.3288H74.8621C74.8621 36.2064 75.8087 35.2638 76.8746 35.2638V31.2638ZM70.8621 37.3288C70.8621 40.6719 73.6422 43.2555 76.8746 43.2555V39.2555C75.7388 39.2555 74.8621 38.3519 74.8621 37.3288H70.8621ZM76.8746 43.2555C80.1802 43.2555 82.8327 40.5451 82.8327 37.2695H78.8327C78.8327 38.37 77.9372 39.2555 76.8746 39.2555V43.2555ZM82.8327 37.2695V24.1262H78.8327V37.2695H82.8327ZM80.8327 26.1262H83.5752V22.1262H80.8327V26.1262ZM107.684 28.3192C107.535 28.3192 107.416 28.2563 107.343 28.1832C107.27 28.11 107.206 27.991 107.206 27.8405H111.206C111.206 25.9053 109.618 24.3192 107.684 24.3192V28.3192ZM107.206 27.8405C107.206 27.6234 107.407 27.3914 107.684 27.3914V31.3914C109.623 31.3914 111.206 29.8258 111.206 27.8405H107.206ZM107.684 27.3914C107.81 27.3914 107.935 27.4437 108.026 27.5348C108.122 27.6304 108.162 27.7503 108.162 27.8405H104.162C104.162 29.8349 105.751 31.3914 107.684 31.3914V27.3914ZM108.162 27.8405C108.162 27.991 108.099 28.11 108.026 28.1832C107.953 28.2563 107.834 28.3192 107.684 28.3192V24.3192C105.751 24.3192 104.162 25.9053 104.162 27.8405H108.162ZM87.3109 28.3192C87.1612 28.3192 87.0425 28.2563 86.9693 28.1832C86.8961 28.11 86.8328 27.991 86.8328 27.8405H90.8328C90.8328 25.9053 89.2448 24.3192 87.3109 24.3192V28.3192ZM86.8328 27.8405C86.8328 27.6234 87.0331 27.3914 87.3109 27.3914V31.3914C89.249 31.3914 90.8328 29.8258 90.8328 27.8405H86.8328ZM87.3109 27.3914C87.4361 27.3914 87.5613 27.4437 87.6525 27.5348C87.7481 27.6304 87.7889 27.7503 87.7889 27.8405H83.7889C83.7889 29.8349 85.377 31.3914 87.3109 31.3914V27.3914ZM87.7889 27.8405C87.7889 27.991 87.7257 28.11 87.6525 28.1832C87.5793 28.2563 87.4606 28.3192 87.3109 28.3192V24.3192C85.377 24.3192 83.7889 25.9053 83.7889 27.8405H87.7889ZM114.875 27.3959V30.5521H118.875V27.3959H114.875ZM116.875 32.5521H120.033V28.5521H116.875V32.5521ZM118.033 30.5521V33.1255H122.033V30.5521H118.033ZM120.033 31.1255H116.875V35.1255H120.033V31.1255ZM114.875 33.1255V39.5465H118.875V33.1255H114.875ZM114.875 39.5465C114.875 40.3652 115.061 41.4822 116.043 42.244C116.883 42.8965 117.899 42.9295 118.452 42.9295V38.9295C118.358 38.9295 118.288 38.9266 118.237 38.9227C118.186 38.9187 118.166 38.9144 118.168 38.9149C118.168 38.9149 118.316 38.9446 118.495 39.084C118.695 39.2394 118.808 39.4308 118.857 39.5671C118.894 39.673 118.875 39.6924 118.875 39.5465H114.875ZM118.452 42.9295H120.028V38.9295H118.452V42.9295ZM118.028 40.9295V43.5028H122.028V40.9295H118.028ZM120.028 41.5028H118.037V45.5028H120.028V41.5028ZM118.037 41.5028C117.218 41.5028 116.828 41.244 116.616 41.0004C116.368 40.7161 116.133 40.1822 116.133 39.2995H112.133C112.133 40.8519 112.547 42.4196 113.6 43.6282C114.689 44.8775 116.252 45.5028 118.037 45.5028V41.5028ZM116.133 39.2995V33.1304H112.133V39.2995H116.133ZM114.133 31.1304H110.867V35.1304H114.133V31.1304ZM112.867 33.1304V30.5571H108.867V33.1304H112.867ZM110.867 32.5571H114.133V28.5571H110.867V32.5571ZM116.133 30.5571V27.4009H112.133V30.5571H116.133ZM114.133 29.4009H116.875V25.4009H114.133V29.4009ZM128.221 32.0829C130.838 32.0829 132.922 34.1611 132.922 36.8348H136.922C136.922 31.9811 133.076 28.0829 128.221 28.0829V32.0829ZM132.922 36.8348V43.5028H136.922V36.8348H132.922ZM134.922 41.5028H132.179V45.5028H134.922V41.5028ZM134.179 43.5028V36.7805H130.179V43.5028H134.179ZM134.179 36.7805C134.179 33.5065 131.533 30.7945 128.221 30.7945V34.7945C129.287 34.7945 130.179 35.6783 130.179 36.7805H134.179ZM128.221 30.7945C124.974 30.7945 122.209 33.4124 122.209 36.7212H126.209C126.209 35.7131 127.09 34.7945 128.221 34.7945V30.7945ZM122.209 36.7212C122.209 39.9326 124.852 42.7862 128.221 42.7862V38.7862C127.163 38.7862 126.209 37.8268 126.209 36.7212H122.209ZM128.221 42.7862H130.489V38.7862H128.221V42.7862ZM128.489 40.7862V43.4979H132.489V40.7862H128.489ZM130.489 41.4979H128.191V45.4979H130.489V41.4979ZM128.191 41.4979C125.611 41.4979 123.466 39.3718 123.466 36.8595H119.466C119.466 41.6475 123.469 45.4979 128.191 45.4979V41.4979ZM123.466 36.8595C123.466 34.2776 125.567 32.0829 128.221 32.0829V28.0829C123.285 28.0829 119.466 32.1412 119.466 36.8595H123.466ZM97.2481 32.0829C99.8648 32.0829 101.949 34.1611 101.949 36.8348H105.949C105.949 31.9811 102.103 28.0829 97.2481 28.0829V32.0829ZM101.949 36.8348V43.4732H105.949V36.8348H101.949ZM101.949 43.4732C101.949 45.0827 101.461 46.0809 100.835 46.6827C100.197 47.2968 99.1766 47.7263 97.6928 47.7263V51.7263C99.9447 51.7263 102.053 51.0617 103.608 49.5655C105.177 48.057 105.949 45.9286 105.949 43.4732H101.949ZM97.6928 47.7263H94.9256V51.7263H97.6928V47.7263ZM96.9256 49.7263V46.985H92.9256V49.7263H96.9256ZM94.9256 48.985H97.7225V44.985H94.9256V48.985ZM97.7225 48.985C99.1911 48.985 100.598 48.5076 101.647 47.4775C102.701 46.442 103.211 45.0257 103.211 43.4979H99.2111C99.2111 44.1285 99.0149 44.4557 98.8435 44.6242C98.6665 44.798 98.3293 44.985 97.7225 44.985V48.985ZM103.211 43.4979V36.7756H99.2111V43.4979H103.211ZM103.211 36.7756C103.211 33.5015 100.565 30.7896 97.253 30.7896V34.7896C98.319 34.7896 99.2111 35.6734 99.2111 36.7756H103.211ZM97.253 30.7896C93.9959 30.7896 91.2406 33.4172 91.2406 36.7459H95.2406C95.2406 35.6985 96.1321 34.7896 97.253 34.7896V30.7896ZM91.2406 36.7459C91.2406 40.0123 93.9086 42.7862 97.253 42.7862V38.7862C96.17 38.7862 95.2406 37.8558 95.2406 36.7459H91.2406ZM97.253 42.7862H99.5212V38.7862H97.253V42.7862ZM97.5212 40.7862V43.4979H101.521V40.7862H97.5212ZM99.5212 41.4979H97.2234V45.4979H99.5212V41.4979ZM97.2234 41.4979C94.6543 41.4979 92.4981 39.3833 92.4981 36.8003H88.4981C88.4981 41.636 92.489 45.4979 97.2234 45.4979V41.4979ZM92.4981 36.8003C92.4981 34.1915 94.5665 32.0779 97.253 32.0779V28.0779C92.3495 28.0779 88.4981 31.9903 88.4981 36.8003H92.4981ZM107.068 30.5521V43.4979H111.068V30.5521H107.068ZM109.068 41.4979H106.326V45.4979H109.068V41.4979ZM108.326 43.4979V30.5521H104.326V43.4979H108.326ZM105.531 32.3874C106.241 32.6951 106.953 32.8287 107.679 32.8287V28.8287C107.467 28.8287 107.299 28.7944 107.12 28.7169L105.531 32.3874ZM107.679 32.8287C108.388 32.8287 109.133 32.7015 109.858 32.3874L108.268 28.7169C108.104 28.788 107.91 28.8287 107.679 28.8287V32.8287ZM86.6945 30.5521V43.4979H90.6945V30.5521H86.6945ZM88.6945 41.4979H85.952V45.4979H88.6945V41.4979ZM87.952 43.4979V30.5521H83.952V43.4979H87.952ZM85.1571 32.3874C85.8675 32.6951 86.5796 32.8287 87.3059 32.8287V28.8287C87.0934 28.8287 86.9259 28.7944 86.7469 28.7169L85.1571 32.3874ZM87.3059 32.8287C88.0146 32.8287 88.7592 32.7015 89.4845 32.3874L87.8946 28.7169C87.7304 28.788 87.5361 28.8287 87.3059 28.8287V32.8287ZM156.965 -1.99219H153.976V2.00781H156.965V-1.99219ZM151.976 0.0078125V14.0205H155.976V0.0078125H151.976ZM151.976 14.0205C151.976 18.2129 155.387 21.6216 159.579 21.6216V17.6216C157.595 17.6216 155.976 16.0021 155.976 14.0205H151.976ZM159.579 21.6216H162.001V17.6216H159.579V21.6216ZM164.001 19.6216V16.6333H160.001V19.6216H164.001ZM162.001 14.6333H159.579V18.6333H162.001V14.6333ZM159.579 14.6333C159.443 14.6333 159.285 14.5748 159.152 14.4415C159.019 14.3082 158.96 14.1512 158.96 14.0155H154.96C154.96 16.5385 157.057 18.6333 159.579 18.6333V14.6333ZM158.96 14.0155V0.0078125H154.96V14.0155H158.96ZM156.96 2.00781H156.965V-1.99219H156.96V2.00781ZM120.112 0.195899C118.11 0.195899 116.467 1.85008 116.467 3.84067H120.467C120.467 3.96717 120.414 4.0532 120.369 4.09796C120.324 4.14328 120.237 4.1959 120.112 4.1959V0.195899ZM116.467 3.84067C116.467 5.84928 118.049 7.51507 120.112 7.51507V3.51507C120.196 3.51507 120.296 3.55363 120.37 3.62848C120.442 3.70205 120.467 3.787 120.467 3.84067H116.467ZM120.112 7.51507C122.175 7.51507 123.758 5.84927 123.758 3.84067H119.758C119.758 3.787 119.782 3.70205 119.854 3.62849C119.928 3.55363 120.028 3.51507 120.112 3.51507V7.51507ZM123.758 3.84067C123.758 1.75783 122.066 0.195899 120.112 0.195899V4.1959C120.022 4.1959 119.935 4.15935 119.869 4.09551C119.798 4.02581 119.758 3.92703 119.758 3.84067H123.758ZM145.19 3.95961C140.29 3.95961 136.311 7.95765 136.311 12.8597H140.311C140.311 10.1554 142.51 7.95961 145.19 7.95961V3.95961ZM136.311 12.8597C136.311 17.8181 140.396 21.6216 145.16 21.6216V17.6216C142.503 17.6216 140.311 15.5078 140.311 12.8597H136.311ZM145.16 21.6216H147.582V17.6216H145.16V21.6216ZM149.582 19.6216V16.663H145.582V19.6216H149.582ZM147.582 14.663H145.19V18.663H147.582V14.663ZM145.19 14.663C144.211 14.663 143.301 13.7776 143.301 12.7214H139.301C139.301 15.9328 141.949 18.663 145.19 18.663V14.663ZM143.301 12.7214C143.301 11.7464 144.095 10.9182 145.19 10.9182V6.91821C141.996 6.91821 139.301 9.429 139.301 12.7214H143.301ZM145.19 10.9182C146.206 10.9182 147.024 11.7321 147.024 12.7807H151.024C151.024 9.5717 148.463 6.91821 145.19 6.91821V10.9182ZM147.024 12.7807V19.6265H151.024V12.7807H147.024ZM149.024 21.6265H152.014V17.6265H149.024V21.6265ZM154.014 19.6265V12.835H150.014V19.6265H154.014ZM154.014 12.835C154.014 7.89311 150.139 3.95961 145.19 3.95961V7.95961C147.9 7.95961 150.014 10.0717 150.014 12.835H154.014ZM130.578 3.95961C125.636 3.95961 121.754 7.88628 121.754 12.835H125.754C125.754 10.0687 127.871 7.95961 130.578 7.95961V3.95961ZM121.754 12.835V25.85H125.754V12.835H121.754ZM123.754 27.85H126.744V23.85H123.754V27.85ZM128.744 25.85V12.7807H124.744V25.85H128.744ZM128.744 12.7807C128.744 11.7422 129.582 10.9182 130.578 10.9182V6.91821C127.344 6.91821 124.744 9.56155 124.744 12.7807H128.744ZM130.578 10.9182C131.64 10.9182 132.467 11.7823 132.467 12.7214H136.467C136.467 9.47212 133.746 6.91821 130.578 6.91821V10.9182ZM132.467 12.7214C132.467 13.7511 131.544 14.663 130.578 14.663V18.663C133.832 18.663 136.467 15.8802 136.467 12.7214H132.467ZM130.578 14.663H128.186V18.663H130.578V14.663ZM126.186 16.663V19.6216H130.186V16.663H126.186ZM128.186 21.6216H130.608V17.6216H128.186V21.6216ZM130.608 21.6216C135.399 21.6216 139.457 17.6535 139.457 12.8597H135.457C135.457 15.3959 133.239 17.6216 130.608 17.6216V21.6216ZM139.457 12.8597C139.457 8.12292 135.51 3.95961 130.578 3.95961V7.95961C133.236 7.95961 135.457 10.2667 135.457 12.8597H139.457ZM111.005 3.95961C108.813 3.95961 106.839 4.75257 105.414 6.21184C103.992 7.66763 103.233 9.66474 103.233 11.8669H107.233C107.233 10.5919 107.661 9.63536 108.275 9.00679C108.886 8.38169 109.798 7.95961 111.005 7.95961V3.95961ZM103.233 11.8669V19.6265H107.233V11.8669H103.233ZM105.233 21.6265H108.223V17.6265H105.233V21.6265ZM110.223 19.6265V11.8669H106.223V19.6265H110.223ZM110.223 11.8669C110.223 11.4864 110.357 11.2077 110.508 11.0412C110.654 10.8805 110.824 10.8096 111.005 10.8096V6.80955C108.165 6.80955 106.223 9.23123 106.223 11.8669H110.223ZM111.005 10.8096C111.187 10.8096 111.356 10.8805 111.502 11.0412C111.653 11.2077 111.787 11.4864 111.787 11.8669H115.787C115.787 9.23124 113.845 6.80955 111.005 6.80955V10.8096ZM111.787 11.8669V19.6265H115.787V11.8669H111.787ZM113.787 21.6265H116.777V17.6265H113.787V21.6265ZM118.777 19.6265V11.8669H114.777V19.6265H118.777ZM118.777 11.8669C118.777 7.38382 115.499 3.95961 111.005 3.95961V7.95961C113.202 7.95961 114.777 9.50428 114.777 11.8669H118.777ZM96.7243 3.95961C91.824 3.95961 87.8458 7.95765 87.8458 12.8597H91.8458C91.8458 10.1554 94.0445 7.95961 96.7243 7.95961V3.95961ZM87.8458 12.8597C87.8458 17.8181 91.9304 21.6216 96.6947 21.6216V17.6216C94.0369 17.6216 91.8458 15.5078 91.8458 12.8597H87.8458ZM96.6947 21.6216H99.116V17.6216H96.6947V21.6216ZM101.116 19.6216V16.663H97.116V19.6216H101.116ZM99.116 14.663H96.7243V18.663H99.116V14.663ZM96.7243 14.663C95.7457 14.663 94.8354 13.7776 94.8354 12.7214H90.8354C90.8354 15.9328 93.483 18.663 96.7243 18.663V14.663ZM94.8354 12.7214C94.8354 11.7464 95.6294 10.9182 96.7243 10.9182V6.91821C93.5301 6.91821 90.8354 9.42899 90.8354 12.7214H94.8354ZM96.7243 10.9182C97.7401 10.9182 98.5589 11.7321 98.5589 12.7807H102.559C102.559 9.5717 99.9977 6.91821 96.7243 6.91821V10.9182ZM98.5589 12.7807V19.6265H102.559V12.7807H98.5589ZM100.559 21.6265H103.548V17.6265H100.559V21.6265ZM105.548 19.6265V12.835H101.548V19.6265H105.548ZM105.548 12.835C105.548 7.89311 101.674 3.95961 96.7243 3.95961V7.95961C99.4342 7.95961 101.548 10.0717 101.548 12.835H105.548ZM83.4121 3.95961C81.2428 3.95961 79.2714 4.87773 77.9209 6.5686L81.0464 9.06492C81.6131 8.35532 82.4189 7.95961 83.4121 7.95961V3.95961ZM81.0476 6.57014C79.6809 4.8556 77.7246 3.95961 75.5256 3.95961V7.95961C76.5681 7.95961 77.3493 8.34782 77.9197 9.06339L81.0476 6.57014ZM75.5256 3.95961C71.2502 3.95961 68.2827 7.35752 68.2827 11.5903H72.2827C72.2827 9.29349 73.723 7.95961 75.5256 7.95961V3.95961ZM68.2827 11.5903V19.6265H72.2827V11.5903H68.2827ZM70.2827 21.6265H73.2723V17.6265H70.2827V21.6265ZM75.2723 19.6265V11.5903H71.2723V19.6265H75.2723ZM75.2723 11.5903C75.2723 11.2483 75.3856 11.0223 75.4804 10.9108C75.5675 10.8084 75.6221 10.8096 75.6392 10.8096V6.80955C72.915 6.80955 71.2723 9.23974 71.2723 11.5903H75.2723ZM75.6392 10.8096C75.6563 10.8096 75.7109 10.8084 75.798 10.9108C75.8929 11.0223 76.0062 11.2483 76.0062 11.5903H80.0062C80.0062 9.23975 78.3635 6.80955 75.6392 6.80955V10.8096ZM76.0062 11.5903V19.6265H80.0062V11.5903H76.0062ZM78.0062 21.6265H80.9957V17.6265H78.0062V21.6265ZM82.9957 19.6265V11.5903H78.9957V19.6265H82.9957ZM82.9957 11.5903C82.9957 11.2483 83.109 11.0223 83.2039 10.9108C83.291 10.8084 83.3456 10.8096 83.3627 10.8096V6.80955C80.6384 6.80955 78.9957 9.23975 78.9957 11.5903H82.9957ZM83.3627 10.8096C83.3798 10.8096 83.4344 10.8084 83.5215 10.9108C83.6163 11.0223 83.7296 11.2483 83.7296 11.5903H87.7296C87.7296 9.23974 86.0869 6.80955 83.3627 6.80955V10.8096ZM83.7296 11.5903V19.6265H87.7296V11.5903H83.7296ZM85.7296 21.6265H88.7192V17.6265H85.7296V21.6265ZM90.7192 19.6265V11.5903H86.7192V19.6265H90.7192ZM90.7192 11.5903C90.7192 7.34315 87.7089 3.95961 83.422 3.95961V7.95961C85.2723 7.95961 86.7192 9.31774 86.7192 11.5903H90.7192ZM83.422 3.95961H83.4121V7.95961H83.422V3.95961ZM120.832 4.52622L120.659 4.60031L122.234 8.27712L122.407 8.20303L120.832 4.52622ZM120.643 4.60729C120.515 4.66326 120.343 4.70543 120.112 4.70543V8.70543C120.84 8.70543 121.567 8.56979 122.25 8.27013L120.643 4.60729ZM120.112 4.70543C119.905 4.70543 119.761 4.67203 119.603 4.60374L118.012 8.27368C118.675 8.56102 119.361 8.70543 120.112 8.70543V4.70543ZM119.595 4.6003L119.422 4.52621L117.847 8.20304L118.02 8.27712L119.595 4.6003ZM116.635 6.36462V19.6265H120.635V6.36462H116.635ZM118.635 21.6265H121.624V17.6265H118.635V21.6265ZM123.624 19.6265V6.36462H119.624V19.6265H123.624ZM121.624 4.36462H121.619V8.36462H121.624V4.36462ZM140.001 22.0076H137.012V26.0076H140.001V22.0076ZM135.012 24.0076V38.0203H139.012V24.0076H135.012ZM135.012 38.0203C135.012 42.2127 138.423 45.6214 142.615 45.6214V41.6214C140.631 41.6214 139.012 40.0019 139.012 38.0203H135.012ZM142.615 45.6214H145.037V41.6214H142.615V45.6214ZM147.037 43.6214V40.6331H143.037V43.6214H147.037ZM145.037 38.6331H142.615V42.6331H145.037V38.6331ZM142.615 38.6331C142.479 38.6331 142.321 38.5746 142.188 38.4413C142.055 38.308 141.996 38.151 141.996 38.0153H137.996C137.996 40.5383 140.093 42.6331 142.615 42.6331V38.6331ZM141.996 38.0153V24.0027H137.996V38.0153H141.996ZM138.584 25.4188L138.589 25.4237L141.414 22.5915L141.409 22.5866L138.584 25.4188ZM83.6987 22.0076H80.7091V26.0076H83.6987V22.0076ZM78.7091 24.0076V37.2744H82.7091V24.0076H78.7091ZM78.7091 37.2744C78.7091 38.3129 77.8708 39.1369 76.8746 39.1369V43.1369C80.1083 43.1369 82.7091 40.4936 82.7091 37.2744H78.7091ZM76.8746 39.1369C75.813 39.1369 74.9857 38.2729 74.9857 37.3337H70.9857C70.9857 40.583 73.7063 43.1369 76.8746 43.1369V39.1369ZM74.9857 37.3337C74.9857 36.304 75.9088 35.3922 76.8746 35.3922V31.3922C73.6204 31.3922 70.9857 34.1749 70.9857 37.3337H74.9857ZM76.8746 35.3922H79.2662V31.3922H76.8746V35.3922ZM81.2662 33.3922V30.4336H77.2662V33.3922H81.2662ZM79.2662 28.4336H76.8449V32.4336H79.2662V28.4336ZM76.8449 28.4336C72.0537 28.4336 67.9961 32.4017 67.9961 37.1954H71.9961C71.9961 34.6593 74.2141 32.4336 76.8449 32.4336V28.4336ZM67.9961 37.1954C67.9961 41.9322 71.9426 46.0955 76.8746 46.0955V42.0955C74.2165 42.0955 71.9961 39.7884 71.9961 37.1954H67.9961ZM76.8746 46.0955C81.7818 46.0955 85.6987 42.1746 85.6987 37.2201H81.6987C81.6987 39.9807 79.5574 42.0955 76.8746 42.0955V46.0955ZM85.6987 37.2201V24.0126H81.6987V37.2201H85.6987ZM85.6987 24.0126V24.0076H81.6987V24.0126H85.6987ZM107.684 24.1957C105.682 24.1957 104.039 25.8499 104.039 27.8405H108.039C108.039 27.967 107.986 28.053 107.942 28.0978C107.896 28.1431 107.81 28.1957 107.684 28.1957V24.1957ZM104.039 27.8405C104.039 29.8491 105.622 31.5149 107.684 31.5149V27.5149C107.769 27.5149 107.869 27.5534 107.942 27.6283C108.014 27.7019 108.039 27.7868 108.039 27.8405H104.039ZM107.684 31.5149C109.747 31.5149 111.33 29.8491 111.33 27.8405H107.33C107.33 27.7868 107.354 27.7019 107.427 27.6283C107.5 27.5534 107.6 27.5149 107.684 27.5149V31.5149ZM111.33 27.8405C111.33 25.7576 109.638 24.1957 107.684 24.1957V28.1957C107.594 28.1957 107.507 28.1592 107.442 28.0953C107.37 28.0256 107.33 27.9268 107.33 27.8405H111.33ZM87.3109 24.1957C85.3089 24.1957 83.6654 25.8499 83.6654 27.8405H87.6654C87.6654 27.967 87.6128 28.053 87.5681 28.0978C87.5228 28.1431 87.4361 28.1957 87.3109 28.1957V24.1957ZM83.6654 27.8405C83.6654 29.8491 85.2482 31.5149 87.3109 31.5149V27.5149C87.3951 27.5149 87.4951 27.5534 87.5686 27.6283C87.6409 27.7019 87.6654 27.7868 87.6654 27.8405H83.6654ZM87.3109 31.5149C89.3736 31.5149 90.9564 29.8491 90.9564 27.8405H86.9564C86.9564 27.7868 86.9809 27.7019 87.0532 27.6283C87.1267 27.5534 87.2267 27.5149 87.3109 27.5149V31.5149ZM90.9564 27.8405C90.9564 25.7576 89.2647 24.1957 87.3109 24.1957V28.1957C87.2209 28.1957 87.1333 28.1592 87.0681 28.0953C86.9969 28.0256 86.9564 27.9268 86.9564 27.8405H90.9564ZM116.999 25.2725H114.009V29.2725H116.999V25.2725ZM112.009 27.2725V30.4286H116.009V27.2725H112.009ZM114.009 28.4286H110.743V32.4286H114.009V28.4286ZM108.743 30.4286V33.2489H112.743V30.4286H108.743ZM110.743 35.2489H114.009V31.2489H110.743V35.2489ZM112.009 33.2489V39.2946H116.009V33.2489H112.009ZM112.009 39.2946C112.009 41.0104 112.49 42.6306 113.615 43.838C114.756 45.0638 116.336 45.6214 118.037 45.6214V41.6214C117.217 41.6214 116.783 41.3714 116.542 41.1117C116.283 40.8336 116.009 40.2904 116.009 39.2946H112.009ZM118.037 45.6214H120.152V41.6214H118.037V45.6214ZM122.152 43.6214V40.8011H118.152V43.6214H122.152ZM120.152 38.8011H118.452V42.8011H120.152V38.8011ZM118.452 38.8011C118.359 38.8011 118.291 38.7988 118.242 38.7954C118.192 38.7921 118.175 38.7885 118.18 38.7896C118.185 38.7904 118.355 38.8214 118.56 38.9754C118.79 39.149 118.918 39.3674 118.974 39.5252C119.017 39.6475 118.999 39.682 118.999 39.5415H114.999C114.999 40.2927 115.154 41.4187 116.154 42.171C116.984 42.796 117.987 42.8011 118.452 42.8011V38.8011ZM118.999 39.5415V33.244H114.999V39.5415H118.999ZM116.999 35.244H120.157V31.244H116.999V35.244ZM122.157 33.244V30.4237H118.157V33.244H122.157ZM120.157 28.4237H116.999V32.4237H120.157V28.4237ZM118.999 30.4237V27.2675H114.999V30.4237H118.999ZM114.999 27.2675V27.2725H118.999V27.2675H114.999ZM128.221 27.9594C123.321 27.9594 119.343 31.9574 119.343 36.8595H123.343C123.343 34.1552 125.541 31.9594 128.221 31.9594V27.9594ZM119.343 36.8595C119.343 41.8179 123.427 45.6214 128.191 45.6214V41.6214C125.534 41.6214 123.343 39.5076 123.343 36.8595H119.343ZM128.191 45.6214H130.613V41.6214H128.191V45.6214ZM132.613 43.6214V40.6628H128.613V43.6214H132.613ZM130.613 38.6628H128.221V42.6628H130.613V38.6628ZM128.221 38.6628C127.242 38.6628 126.332 37.7774 126.332 36.7212H122.332C122.332 39.9326 124.98 42.6628 128.221 42.6628V38.6628ZM126.332 36.7212C126.332 35.7462 127.126 34.918 128.221 34.918V30.918C125.027 30.918 122.332 33.4288 122.332 36.7212H126.332ZM128.221 34.918C129.237 34.918 130.056 35.7319 130.056 36.7805H134.056C134.056 33.5715 131.494 30.918 128.221 30.918V34.918ZM130.056 36.7805V43.6263H134.056V36.7805H130.056ZM132.056 45.6263H135.045V41.6263H132.056V45.6263ZM137.045 43.6263V36.8348H133.045V43.6263H137.045ZM137.045 36.8348C137.045 31.8929 133.17 27.9594 128.221 27.9594V31.9594C130.931 31.9594 133.045 34.0715 133.045 36.8348H137.045ZM97.2481 27.9594C92.3627 27.9594 88.3696 31.9178 88.3696 36.8052H92.3696C92.3696 34.1454 94.5533 31.9594 97.2481 31.9594V27.9594ZM88.3696 36.8052C88.3696 41.6936 92.3489 45.6263 97.2185 45.6263V41.6263C94.5375 41.6263 92.3696 39.464 92.3696 36.8052H88.3696ZM97.2185 45.6263H99.6398V41.6263H97.2185V45.6263ZM101.64 43.6263V40.6677H97.6398V43.6263H101.64ZM99.6398 38.6677H97.2481V42.6677H99.6398V38.6677ZM97.2481 38.6677C96.2566 38.6677 95.3592 37.7841 95.3592 36.7509H91.3592C91.3592 39.9654 94.0197 42.6677 97.2481 42.6677V38.6677ZM95.3592 36.7509C95.3592 35.7623 96.1771 34.918 97.2481 34.918V30.918C94.0299 30.918 91.3592 33.4917 91.3592 36.7509H95.3592ZM97.2481 34.918C98.2639 34.918 99.0827 35.7319 99.0827 36.7805H103.083C103.083 33.5715 100.521 30.918 97.2481 30.918V34.918ZM99.0827 36.7805V43.5028H103.083V36.7805H99.0827ZM99.0827 43.5028C99.0827 44.0873 98.9029 44.3875 98.7534 44.5369C98.6038 44.6865 98.303 44.8664 97.7175 44.8664V48.8664C99.1779 48.8664 100.56 48.387 101.581 47.366C102.603 46.3448 103.083 44.9632 103.083 43.5028H99.0827ZM97.7175 44.8664H94.7972V48.8664H97.7175V44.8664ZM92.7972 46.8664V49.8547H96.7972V46.8664H92.7972ZM94.7972 51.8547H97.6879V47.8547H94.7972V51.8547ZM97.6879 51.8547C100.083 51.8547 102.234 51.1314 103.789 49.5775C105.343 48.0236 106.067 45.873 106.067 43.4781H102.067C102.067 45.0742 101.598 46.1119 100.961 46.7485C100.324 47.3852 99.2854 47.8547 97.6879 47.8547V51.8547ZM106.067 43.4781V36.8398H102.067V43.4781H106.067ZM106.067 36.8398C106.067 31.8979 102.193 27.9643 97.2432 27.9643V31.9643C99.953 31.9643 102.067 34.0765 102.067 36.8398H106.067ZM98.6563 31.3797L98.6612 31.3747L95.835 28.5441L95.83 28.549L98.6563 31.3797ZM108.404 28.526L108.231 28.6001L109.806 32.2769L109.979 32.2028L108.404 28.526ZM108.215 28.6071C108.087 28.6631 107.915 28.7052 107.684 28.7052V32.7052C108.413 32.7052 109.139 32.5696 109.822 32.2699L108.215 28.6071ZM107.684 28.7052C107.477 28.7052 107.333 28.6718 107.175 28.6035L105.584 32.2735C106.247 32.5608 106.933 32.7052 107.684 32.7052V28.7052ZM107.167 28.6001L106.994 28.526L105.419 32.2028L105.592 32.2769L107.167 28.6001ZM104.207 30.3644V43.6263H108.207V30.3644H104.207ZM106.207 45.6263H109.196V41.6263H106.207V45.6263ZM111.196 43.6263V30.3644H107.196V43.6263H111.196ZM109.196 28.3644H109.192V32.3644H109.196V28.3644ZM88.0305 28.526L87.8575 28.6001L89.4326 32.2769L89.6056 32.2028L88.0305 28.526ZM87.8414 28.6071C87.7139 28.6631 87.5414 28.7052 87.3109 28.7052V32.7052C88.039 32.7052 88.7659 32.5696 89.4488 32.2699L87.8414 28.6071ZM87.3109 28.7052C87.1036 28.7052 86.9594 28.6718 86.8019 28.6035L85.2108 32.2735C85.8736 32.5608 86.5596 32.7052 87.3109 32.7052V28.7052ZM86.7939 28.6001L86.6209 28.526L85.0459 32.2028L85.2188 32.2769L86.7939 28.6001ZM83.8334 30.3644V43.6263H87.8334V30.3644H83.8334ZM85.8334 45.6263H88.823V41.6263H85.8334V45.6263ZM90.823 43.6263V30.3644H86.823V43.6263H90.823ZM88.823 28.3644H88.818V32.3644H88.823V28.3644Z" fill="white" mask="url(#path-2-inside-2_1341_5151)"/>
<path d="M54.3797 49.945C50.051 49.945 46.5327 46.4282 46.5327 42.1015C46.5327 37.7747 50.051 34.2579 54.3797 34.2579C58.7084 34.2579 62.2267 37.7747 62.2267 42.1015C62.2267 46.4282 58.7084 49.945 54.3797 49.945ZM7.91045 49.945C3.58175 49.945 0.0634517 46.4282 0.0634517 42.1015C0.0634517 37.7747 3.58175 34.2579 7.91045 34.2579C12.2391 34.2579 15.7574 37.7747 15.7574 42.1015C15.7574 46.4282 12.2391 49.945 7.91045 49.945ZM31.0314 38.9749C27.7058 38.9749 24.8596 37.1178 23.7725 34.2481C23.3178 33.0429 23.1844 31.976 23.0658 30.7955C22.8286 25.9254 20.0565 21.3418 15.6487 18.5314C13.8846 17.4052 12.3034 16.7137 10.6727 16.3482C9.57077 16.0618 8.67143 16.0173 8.01422 15.9827C7.8808 15.9827 7.75232 15.9679 7.63373 15.963C4.57992 15.9284 1.83743 13.9181 0.646541 10.841C-0.554228 7.73418 0.112866 4.49404 2.38593 2.3751C3.77941 0.883448 5.70657 0.063533 7.80174 0.063533C11.5819 0.063533 15.7723 2.86903 15.9551 7.40325V7.48228C15.9848 7.91694 16.0144 8.34171 16.049 8.76649C16.2368 16.6643 23.0214 23.0804 31.1747 23.0804C39.3281 23.0804 46.3103 16.5063 46.3103 8.42568C46.3103 8.27256 46.3054 8.12438 46.3005 7.97127V7.912L46.3301 7.39831C46.5129 2.86409 50.7033 0.0585938 54.4835 0.0585938C56.5836 0.0585938 58.5058 0.883448 59.9042 2.3751C62.0982 4.41501 62.7999 7.56625 61.7326 10.5891C60.6603 13.6267 58.0512 15.7259 55.0863 15.9333C52.0671 15.9333 49.1121 16.8026 46.5327 18.4425C43.2071 20.5614 40.8056 23.7769 39.7728 27.4961C39.506 28.3555 39.3923 29.1755 39.3133 29.8571L39.2441 30.5486C39.1304 31.7142 39.0118 32.9194 38.5128 34.2382C37.4256 37.1079 34.5794 38.965 31.2538 38.965H31.0215L31.0314 38.9749Z" fill="url(#paint0_linear_1341_5151)"/>
<path d="M54.4892 0.12842C56.4361 0.12842 58.3781 0.834733 59.8655 2.42517C64.6686 6.89519 61.4072 15.4351 55.0871 15.8797H55.0723C52.1618 15.8797 49.1821 16.6947 46.5038 18.3987C43.0399 20.6065 40.7174 23.901 39.7193 27.4869C39.4623 28.3068 39.3437 29.0872 39.2597 29.8577C39.2498 29.9467 39.2399 30.0306 39.2301 30.1195C39.0917 31.4432 39.0126 32.7571 38.4592 34.224C37.2782 37.3456 34.2738 38.9114 31.2595 38.9114H31.0223C28.0081 38.9114 25.0037 37.3456 23.8227 34.224C23.3631 33.0041 23.2297 31.8927 23.121 30.7913C22.8887 25.9953 20.1759 21.3474 15.6742 18.4827C14.0485 17.4454 12.4425 16.6848 10.6784 16.2896C9.3492 15.9439 8.3362 15.9488 7.62958 15.8994C1.0377 15.8303 -2.48554 6.99891 2.42624 2.42517C3.91362 0.834733 5.8556 0.12842 7.80253 0.12842C11.7557 0.12842 15.7187 3.04752 15.8966 7.40887C15.9262 7.86822 15.951 8.32263 15.9905 8.77704C16.1783 16.744 22.9036 23.1503 31.1805 23.1503C39.4574 23.1503 46.3754 16.5613 46.3754 8.43623C46.3754 8.26336 46.3704 8.09049 46.3605 7.92255C46.3704 7.75462 46.3803 7.58174 46.3902 7.41381C46.5681 3.05245 50.5311 0.13336 54.4843 0.13336M54.3805 34.3179C58.6795 34.3179 62.1633 37.8001 62.1633 42.0972C62.1633 46.3943 58.6795 49.8765 54.3805 49.8765C50.0814 49.8765 46.5928 46.3943 46.5928 42.0972C46.5928 37.8001 50.0765 34.3179 54.3805 34.3179ZM7.91124 34.3179C12.2103 34.3179 15.694 37.8001 15.694 42.0972C15.694 46.3943 12.2103 49.8765 7.91124 49.8765C3.61219 49.8765 0.123536 46.3943 0.123536 42.0972C0.123536 37.8001 3.60725 34.3179 7.91124 34.3179ZM54.4892 0.00493925C50.6794 0.00493925 46.4544 2.83513 46.2716 7.40393V7.43851L46.242 7.91267V7.99664C46.2518 8.14482 46.2568 8.28806 46.2568 8.43623C46.2568 16.4823 39.4969 23.0268 31.1854 23.0268C27.2224 23.0268 23.4768 21.5499 20.6453 18.863C17.8188 16.181 16.2128 12.6 16.1239 8.77704C16.0844 8.35227 16.0597 7.94231 16.035 7.51259V7.40393C15.8422 2.83513 11.6223 0.00493925 7.81241 0.00493925C5.69747 0.00493925 3.75549 0.834733 2.34718 2.3412C0.0592972 4.47002 -0.612738 7.7398 0.597914 10.8663C1.79868 13.9682 4.56589 15.9933 7.6444 16.0279C7.75805 16.0377 7.88653 16.0427 8.01995 16.0476C8.67222 16.0822 9.56662 16.1266 10.6636 16.4082C12.2893 16.7737 13.8657 17.4652 15.6248 18.5864C20.0178 21.382 22.78 25.9508 23.0123 30.7962C23.1309 31.9816 23.2643 33.0584 23.7238 34.2685C24.8208 37.1629 27.6918 39.0349 31.0421 39.0349H31.2743C34.6246 39.0349 37.4956 37.1629 38.5926 34.2685C39.0917 32.9497 39.2103 31.7396 39.3289 30.569L39.3734 30.1343C39.3783 30.0652 39.3882 30.001 39.3931 29.9318V29.8726C39.4771 29.191 39.5908 28.376 39.8527 27.5215C40.8805 23.8121 43.2721 20.6115 46.5878 18.5024C49.1574 16.8675 52.0976 16.0032 55.0871 16.0032C58.0965 15.7908 60.7253 13.6768 61.8075 10.6144C62.8847 7.56693 62.1781 4.39593 59.9594 2.33132C58.556 0.829793 56.614 0 54.4991 0H54.4892V0.00493925ZM54.3805 34.1944C50.0172 34.1944 46.4693 37.7408 46.4693 42.0972C46.4693 46.4536 50.0172 50 54.3805 50C58.7438 50 62.2868 46.4536 62.2868 42.0972C62.2868 37.7408 58.7388 34.1944 54.3805 34.1944ZM7.91124 34.1944C3.54795 34.1944 0 37.7408 0 42.0972C0 46.4536 3.54795 50 7.91124 50C12.2745 50 15.8175 46.4536 15.8175 42.0972C15.8175 37.7408 12.2696 34.1944 7.91124 34.1944Z" fill="white"/>
</g>
<defs>
<linearGradient id="paint0_linear_1341_5151" x1="0.0585103" y1="25.0018" x2="62.2267" y2="25.0018" gradientUnits="userSpaceOnUse">
<stop stop-color="#2C368A"/>
<stop offset="0.13" stop-color="#493B8A"/>
<stop offset="0.56" stop-color="#A24B8B"/>
<stop offset="0.86" stop-color="#DA568B"/>
<stop offset="1" stop-color="#F05A8C"/>
</linearGradient>
<clipPath id="clip0_1341_5151">
<rect width="162" height="50" fill="white"/>
</clipPath>
</defs>
</svg>
