<svg width="68" height="68" viewBox="0 0 68 68" fill="none" xmlns="http://www.w3.org/2000/svg">
<rect width="68" height="68" rx="34" fill="white" fill-opacity="0.8"/>
<path d="M25 25.4286C25 25.0497 25.1505 24.6863 25.4184 24.4184C25.6863 24.1505 26.0497 24 26.4286 24H29.2857C29.6646 24 30.028 24.1505 30.2959 24.4184C30.5638 24.6863 30.7143 25.0497 30.7143 25.4286V42.5714C30.7143 42.9503 30.5638 43.3137 30.2959 43.5816C30.028 43.8495 29.6646 44 29.2857 44H26.4286C26.0497 44 25.6863 43.8495 25.4184 43.5816C25.1505 43.3137 25 42.9503 25 42.5714V25.4286Z" fill="black"/>
<path d="M36.4219 25.4286C36.4219 25.0497 36.5724 24.6863 36.8403 24.4184C37.1082 24.1505 37.4716 24 37.8504 24H40.7076C41.0865 24 41.4498 24.1505 41.7177 24.4184C41.9857 24.6863 42.1362 25.0497 42.1362 25.4286V42.5714C42.1362 42.9503 41.9857 43.3137 41.7177 43.5816C41.4498 43.8495 41.0865 44 40.7076 44H37.8504C37.4716 44 37.1082 43.8495 36.8403 43.5816C36.5724 43.3137 36.4219 42.9503 36.4219 42.5714V25.4286Z" fill="black"/>
<path d="M34 0C39.8332 6.95603e-08 45.5683 1.50076 50.6538 4.35798C55.7394 7.21519 60.0043 11.3328 63.0384 16.3147C66.0726 21.2967 67.774 26.9755 67.979 32.8051C68.184 38.6347 66.8857 44.4191 64.209 49.6019C61.5322 54.7847 57.5671 59.1916 52.6948 62.399C47.8226 65.6064 42.207 67.5063 36.3882 67.916C30.5694 68.3258 24.7431 67.2315 19.4694 64.7386C14.1957 62.2457 9.65215 58.4379 6.27553 53.6813L10.8782 50.4139C13.6942 54.3808 17.4835 57.5565 21.8817 59.6356C26.2799 61.7147 31.139 62.6272 35.9918 62.2855C40.8446 61.9438 45.5278 60.3593 49.5912 57.6844C53.6546 55.0095 56.9615 51.3341 59.1939 47.0117C61.4262 42.6893 62.509 37.8653 62.338 33.0035C62.1671 28.1417 60.7481 23.4056 58.2177 19.2507C55.6872 15.0958 52.1303 11.6618 47.8891 9.27896C43.6478 6.89608 38.8648 5.64446 34 5.64446L34 0Z" fill="#F49595" fill-opacity="0.8"/>
</svg>
