<svg width="80" height="80" viewBox="0 0 80 80" fill="none" xmlns="http://www.w3.org/2000/svg">
<rect width="80" height="80" rx="40" fill="white" fill-opacity="0.8"/>
<path d="M31 31.4286C31 31.0497 31.1505 30.6863 31.4184 30.4184C31.6863 30.1505 32.0497 30 32.4286 30H35.2857C35.6646 30 36.028 30.1505 36.2959 30.4184C36.5638 30.6863 36.7143 31.0497 36.7143 31.4286V48.5714C36.7143 48.9503 36.5638 49.3137 36.2959 49.5816C36.028 49.8495 35.6646 50 35.2857 50H32.4286C32.0497 50 31.6863 49.8495 31.4184 49.5816C31.1505 49.3137 31 48.9503 31 48.5714V31.4286Z" fill="black"/>
<path d="M42.4219 31.4286C42.4219 31.0497 42.5724 30.6863 42.8403 30.4184C43.1082 30.1505 43.4716 30 43.8504 30H46.7076C47.0865 30 47.4498 30.1505 47.7177 30.4184C47.9857 30.6863 48.1362 31.0497 48.1362 31.4286V48.5714C48.1362 48.9503 47.9857 49.3137 47.7177 49.5816C47.4498 49.8495 47.0865 50 46.7076 50H43.8504C43.4716 50 43.1082 49.8495 42.8403 49.5816C42.5724 49.3137 42.4219 48.9503 42.4219 48.5714V31.4286Z" fill="black"/>
<path d="M40 0C46.8626 8.18357e-08 53.6098 1.7656 59.5928 5.12703C65.5757 8.48846 70.5933 13.3327 74.1629 19.1938C77.7325 25.055 79.7341 31.7359 79.9753 38.5943C80.2165 45.4526 78.6891 52.2577 75.54 58.3551C72.3909 64.4525 67.726 69.6372 61.9939 73.4106C56.2618 77.184 49.6553 79.4192 42.8097 79.9012C35.964 80.3832 29.1095 79.0959 22.9052 76.1631C16.7009 73.2302 11.3555 68.7504 7.38298 63.1545L12.7978 59.3105C16.1109 63.9775 20.5689 67.7135 25.7432 70.1595C30.9175 72.6055 36.6341 73.6791 42.3432 73.2771C48.0524 72.875 53.5621 71.0109 58.3426 67.864C63.1231 64.717 67.0135 60.3931 69.6399 55.3079C72.2662 50.2228 73.54 44.5474 73.3389 38.8277C73.1377 33.1079 71.4684 27.536 68.4914 22.6479C65.5144 17.7598 61.3298 13.7198 56.3401 10.9164C51.3504 8.11303 45.7233 6.64054 40 6.64054V0Z" fill="#F49595" fill-opacity="0.8"/>
</svg>
