<svg width="80" height="80" viewBox="0 0 80 80" fill="none" xmlns="http://www.w3.org/2000/svg">
<rect width="80" height="80" rx="40" fill="white" fill-opacity="0.8"/>
<g clip-path="url(#clip0_5014_7800)">
<path d="M33 31.1114V48.8886C32.9999 49.0863 33.0537 49.2804 33.1557 49.451C33.2577 49.6215 33.4043 49.7623 33.5803 49.8587C33.7563 49.9552 33.9554 50.0039 34.157 49.9998C34.3586 49.9956 34.5554 49.9388 34.7271 49.8352L49.46 40.9466C49.625 40.8472 49.7613 40.708 49.8558 40.5423C49.9504 40.3766 50 40.1899 50 40C50 39.8101 49.9504 39.6234 49.8558 39.4577C49.7613 39.292 49.625 39.1528 49.46 39.0534L34.7271 30.1648C34.5554 30.0612 34.3586 30.0044 34.157 30.0002C33.9554 29.9961 33.7563 30.0448 33.5803 30.1413C33.4043 30.2377 33.2577 30.3785 33.1557 30.549C33.0537 30.7196 32.9999 30.9137 33 31.1114Z" fill="black"/>
</g>
<path d="M40 0C46.8626 8.18357e-08 53.6098 1.7656 59.5928 5.12703C65.5757 8.48846 70.5933 13.3327 74.1629 19.1938C77.7325 25.055 79.7341 31.7359 79.9753 38.5943C80.2165 45.4526 78.6891 52.2577 75.54 58.3551C72.3909 64.4525 67.726 69.6372 61.9939 73.4106C56.2618 77.184 49.6553 79.4192 42.8097 79.9012C35.964 80.3832 29.1095 79.0959 22.9052 76.1631C16.7009 73.2302 11.3555 68.7504 7.38298 63.1545L12.7978 59.3105C16.1109 63.9775 20.5689 67.7135 25.7432 70.1595C30.9175 72.6055 36.6341 73.6791 42.3432 73.2771C48.0524 72.875 53.5621 71.0109 58.3426 67.864C63.1231 64.717 67.0135 60.3931 69.6399 55.3079C72.2662 50.2228 73.54 44.5474 73.3389 38.8277C73.1377 33.1079 71.4684 27.536 68.4914 22.6479C65.5144 17.7598 61.3298 13.7198 56.3401 10.9164C51.3504 8.11303 45.7233 6.64054 40 6.64054V0Z" fill="#F49595" fill-opacity="0.8"/>
<defs>
<clipPath id="clip0_5014_7800">
<rect width="32" height="32" fill="white" transform="translate(24 24)"/>
</clipPath>
</defs>
</svg>
