<svg width="68" height="68" viewBox="0 0 68 68" fill="none" xmlns="http://www.w3.org/2000/svg">
<rect width="68" height="68" rx="34" fill="white" fill-opacity="0.8"/>
<g clip-path="url(#clip0_5046_8065)">
<path d="M27.168 25.1114V42.8886C27.1679 43.0863 27.2206 43.2804 27.3206 43.451C27.4206 43.6215 27.5643 43.7623 27.7369 43.8587C27.9094 43.9552 28.1046 44.0039 28.3022 43.9998C28.4999 43.9956 28.6929 43.9388 28.8612 43.8352L43.3052 34.9466C43.467 34.8472 43.6006 34.708 43.6933 34.5423C43.786 34.3766 43.8346 34.1899 43.8346 34C43.8346 33.8101 43.786 33.6234 43.6933 33.4577C43.6006 33.292 43.467 33.1528 43.3052 33.0534L28.8612 24.1648C28.6929 24.0612 28.4999 24.0044 28.3022 24.0002C28.1046 23.9961 27.9094 24.0448 27.7369 24.1413C27.5643 24.2377 27.4206 24.3785 27.3206 24.549C27.2206 24.7196 27.1679 24.9137 27.168 25.1114Z" fill="black"/>
</g>
<path d="M34 0C39.8332 6.95603e-08 45.5683 1.50076 50.6538 4.35798C55.7394 7.21519 60.0043 11.3328 63.0384 16.3147C66.0726 21.2967 67.774 26.9755 67.979 32.8051C68.184 38.6347 66.8857 44.4191 64.209 49.6019C61.5322 54.7847 57.5671 59.1916 52.6948 62.399C47.8226 65.6064 42.207 67.5063 36.3882 67.916C30.5694 68.3258 24.7431 67.2315 19.4694 64.7386C14.1957 62.2457 9.65215 58.4379 6.27553 53.6813L10.8782 50.4139C13.6942 54.3808 17.4835 57.5565 21.8817 59.6356C26.2799 61.7147 31.139 62.6272 35.9918 62.2855C40.8446 61.9438 45.5278 60.3593 49.5912 57.6844C53.6546 55.0095 56.9615 51.3341 59.1939 47.0117C61.4262 42.6893 62.509 37.8653 62.338 33.0035C62.1671 28.1417 60.7481 23.4056 58.2177 19.2507C55.6872 15.0958 52.1303 11.6618 47.8891 9.27896C43.6478 6.89608 38.8648 5.64446 34 5.64446L34 0Z" fill="#F49595" fill-opacity="0.8"/>
<defs>
<clipPath id="clip0_5046_8065">
<rect width="32" height="32" fill="white" transform="translate(18 18)"/>
</clipPath>
</defs>
</svg>
