<svg width="193" height="193" viewBox="0 0 193 193" fill="none" xmlns="http://www.w3.org/2000/svg">
<path d="M167.406 69.0761C167.943 68.7202 168.466 68.3389 168.964 67.9321L167.406 69.0761Z" fill="url(#paint0_linear_1125_92)"/>
<path d="M96.0068 116.716C95.4065 116.716 94.7808 116.691 94.0783 116.615C93.9506 116.615 93.4909 116.538 93.4909 116.538C93.0566 116.488 92.6224 116.424 92.1882 116.335C91.9711 116.297 91.7668 116.246 91.5624 116.208C91.141 116.106 90.7323 116.005 90.3236 115.89C90.0682 115.814 89.9022 115.763 89.7234 115.712C89.2764 115.572 88.8421 115.407 88.4207 115.229C88.4207 115.229 88.0886 115.102 87.9992 115.064C86.8754 114.581 85.7771 113.996 84.7426 113.31L84.1679 112.916C83.9891 112.789 83.7975 112.662 83.6187 112.535L29.2262 72.6861L22.9555 68.0594C19.8521 65.5299 17.5916 62.1616 16.4167 58.3229C16.1996 57.6111 16.0463 57.0264 15.9314 56.4671C15.9058 56.3654 15.842 55.946 15.842 55.946C15.7526 55.4248 15.6632 54.9545 15.6121 54.4715C15.5482 53.9123 15.5227 53.3403 15.5099 52.781C15.5099 52.781 15.4844 52.4759 15.4844 52.3997C15.4844 41.2015 24.5647 32.1768 35.714 32.1768C36.4036 32.1768 37.0294 32.2149 37.7701 32.2785C41.4738 32.6471 44.9475 33.969 47.8849 36.1425L58.766 44.1249L95.9812 71.3769L133.197 44.1249L144.001 36.1934C144.154 36.079 144.231 36.0281 144.32 35.9646C144.32 35.9646 144.869 35.596 145.048 35.4689C145.393 35.2401 145.751 35.024 146.121 34.8206C146.121 34.8206 146.491 34.6045 146.594 34.5537C147.13 34.2741 147.666 34.0071 148.228 33.7656L148.381 33.7148C148.892 33.4987 149.416 33.308 149.952 33.1428L150.476 32.9903C150.897 32.8632 151.332 32.7615 151.766 32.6598C151.957 32.6217 152.162 32.5708 152.353 32.5327C152.8 32.4437 153.26 32.3801 153.72 32.3293L154.231 32.2657C154.933 32.2022 155.572 32.1641 156.159 32.1641C163.975 32.1641 170.961 36.5239 174.409 43.5402C175.788 46.3366 176.478 49.3237 176.478 52.3997C176.478 53.1115 176.44 53.836 176.35 54.6114C176.338 54.7512 176.312 54.891 176.287 55.0308L176.248 55.285C176.172 55.7808 176.095 56.2765 175.993 56.7468C175.954 56.9374 175.903 57.1281 175.852 57.3188L175.788 57.5348C175.674 57.967 175.559 58.3865 175.418 58.8059C175.329 59.0729 175.227 59.3398 175.124 59.6067C174.971 60.0007 174.805 60.3948 174.639 60.7761C174.524 61.043 174.396 61.2972 174.269 61.5515C174.077 61.9201 173.873 62.2887 173.656 62.6446C173.49 62.9369 173.349 63.153 173.209 63.3691C172.966 63.7377 172.723 64.0809 172.455 64.4241L172.302 64.6275C172.2 64.7673 172.085 64.9198 171.97 65.0596C171.663 65.441 171.331 65.7969 170.999 66.1528L170.833 66.3434C170.757 66.4324 170.667 66.5214 170.591 66.6104C170.08 67.1188 169.569 67.5891 169.058 68.0086L168.215 68.6441C167.972 68.8348 167.73 69.0127 167.474 69.1779L162.762 72.6607L108.357 112.509C108.178 112.649 107.999 112.776 107.807 112.89L107.245 113.284C106.211 113.971 105.113 114.556 103.989 115.039C103.899 115.077 103.567 115.204 103.567 115.204C103.133 115.382 102.712 115.534 102.265 115.687C102.086 115.738 101.92 115.789 101.741 115.839C101.269 115.979 100.86 116.081 100.451 116.17C100.221 116.221 100.017 116.272 99.8126 116.31C99.3784 116.386 98.9442 116.449 98.5099 116.513C98.5099 116.513 98.0502 116.577 97.9225 116.589C97.2201 116.653 96.5943 116.691 95.994 116.691L96.0068 116.716Z" fill="black"/>
<path d="M156.187 32.3295C164.157 32.3295 171.015 36.9435 174.297 43.6167C175.6 46.2733 176.353 49.2476 176.353 52.3999C176.353 53.1371 176.302 53.8743 176.225 54.5988C176.2 54.8276 176.149 55.0437 176.123 55.2725C176.047 55.7682 175.983 56.2513 175.868 56.7216C175.804 56.9885 175.74 57.2427 175.664 57.5096C175.549 57.9291 175.434 58.3613 175.293 58.768C175.204 59.0349 175.102 59.3018 174.999 59.5688C174.846 59.9628 174.693 60.3441 174.514 60.7255C174.399 60.9797 174.271 61.2466 174.144 61.5008C173.952 61.8694 173.748 62.238 173.543 62.594C173.403 62.8355 173.263 63.077 173.109 63.3058C172.879 63.6617 172.624 64.0176 172.369 64.3608C172.215 64.5641 172.062 64.7802 171.896 64.9836C171.589 65.3649 171.257 65.7208 170.938 66.0767C170.798 66.2292 170.67 66.3818 170.529 66.5216C170.044 67.0046 169.533 67.4749 168.997 67.9071C168.997 67.9071 168.984 67.9198 168.971 67.9325L168.358 68.3901C168.052 68.6189 167.745 68.8604 167.426 69.0765L162.714 72.5592L108.308 112.408C108.066 112.598 107.797 112.764 107.555 112.941C107.44 113.018 107.325 113.107 107.21 113.183C106.188 113.857 105.115 114.441 103.979 114.924C103.838 114.988 103.698 115.026 103.557 115.09C103.136 115.255 102.702 115.42 102.267 115.56C102.076 115.623 101.871 115.674 101.68 115.738C101.284 115.852 100.875 115.954 100.467 116.043C100.25 116.094 100.045 116.132 99.8281 116.183C99.4067 116.259 98.9724 116.323 98.5382 116.373C98.3466 116.399 98.1551 116.424 97.9507 116.45C97.3249 116.513 96.6864 116.551 96.0351 116.551C95.3837 116.551 94.7579 116.513 94.1194 116.45C93.9278 116.437 93.7362 116.399 93.5319 116.373C93.0977 116.323 92.6635 116.259 92.242 116.183C92.0249 116.145 91.8206 116.094 91.6034 116.043C91.1948 115.954 90.7861 115.852 90.3902 115.738C90.1986 115.674 89.9943 115.623 89.8027 115.56C89.3685 115.42 88.9343 115.255 88.5128 115.09C88.3723 115.039 88.2319 114.988 88.0914 114.924C86.9547 114.441 85.882 113.857 84.8603 113.183C84.7453 113.107 84.6304 113.018 84.5154 112.941C84.26 112.764 84.0046 112.598 83.7619 112.408L29.3566 72.5592L24.644 69.0765L23.086 67.9325C20.0464 65.4539 17.7859 62.0982 16.611 58.2723C16.611 58.2469 16.611 58.2341 16.5982 58.2087C16.4194 57.624 16.2661 57.0393 16.1384 56.4292C16.1001 56.264 16.0746 56.086 16.049 55.9208C15.9596 55.4378 15.8702 54.9547 15.8191 54.459C15.7553 53.8998 15.7297 53.3405 15.717 52.7685C15.717 52.6414 15.6914 52.5143 15.6914 52.3872C15.6914 52.3872 15.6914 52.3745 15.6914 52.3617C15.6914 52.3363 15.6914 52.3236 15.6914 52.2982C15.6914 41.2652 24.6824 32.3168 35.7678 32.3168C35.7805 32.3168 35.7933 32.3168 35.8061 32.3168C35.8188 32.3168 35.8316 32.3168 35.8444 32.3168C36.5085 32.3168 37.1598 32.3549 37.7984 32.4185C37.8111 32.4185 37.8367 32.4185 37.8495 32.4185C41.5659 32.7871 44.9886 34.1472 47.8365 36.2444L47.9132 36.2953L58.7176 44.2268L96.0223 71.5551L133.327 44.2268L144.131 36.2953L144.208 36.2444C144.349 36.1427 144.489 36.0538 144.629 35.9648C144.808 35.8377 144.987 35.7106 145.179 35.5962C145.523 35.3674 145.881 35.164 146.239 34.9479C146.392 34.859 146.545 34.77 146.711 34.681C147.235 34.4014 147.771 34.1344 148.333 33.9056C148.384 33.8802 148.435 33.8675 148.486 33.8548C148.997 33.6387 149.521 33.4608 150.044 33.2828C150.21 33.232 150.389 33.1811 150.568 33.1303C150.99 33.0032 151.411 32.9015 151.845 32.7998C152.037 32.7617 152.228 32.7108 152.433 32.6854C152.88 32.5964 153.339 32.5329 153.799 32.482C153.965 32.4566 154.131 32.4312 154.297 32.4185C154.923 32.3549 155.562 32.3168 156.213 32.3168M156.187 32.0117C155.587 32.0117 154.949 32.0499 154.233 32.1134C154.118 32.1134 154.016 32.1388 153.901 32.1516L153.723 32.177C153.224 32.2405 152.778 32.3041 152.343 32.3931C152.139 32.4312 151.947 32.4693 151.756 32.5202C151.334 32.6091 150.9 32.7235 150.453 32.8506L150.287 32.9015C150.172 32.9396 150.044 32.965 149.93 33.0032C149.38 33.1811 148.844 33.3718 148.346 33.5752L148.193 33.6387C147.656 33.8675 147.12 34.1217 146.545 34.4268C146.443 34.4776 146.341 34.5412 146.239 34.6047L146.073 34.7064C145.702 34.9098 145.345 35.1259 144.987 35.3547C144.796 35.4818 144.617 35.6089 144.438 35.736L144.272 35.8504C144.182 35.9012 144.093 35.9648 144.016 36.0284L143.94 36.0919L133.135 44.0107L96.0223 71.1992L58.9092 44.0107L48.1047 36.0792L48.0281 36.0284C45.0652 33.8421 41.5531 32.5075 37.875 32.1388C37.096 32.0626 36.4446 32.0244 35.8444 32.0244H35.755C24.5036 32.0244 15.3594 41.1254 15.3594 52.3236V52.3872C15.3594 52.4889 15.3594 52.5651 15.3594 52.6287C15.3594 52.6795 15.3594 52.7304 15.3594 52.7812C15.3594 53.2515 15.3977 53.8743 15.4615 54.4972C15.5126 54.9929 15.602 55.4759 15.6787 55.9462L15.717 56.175C15.7297 56.2767 15.7553 56.3911 15.7681 56.4928C15.883 57.052 16.0362 57.6494 16.2278 58.2977V58.3613C17.4411 62.2381 19.7144 65.6318 22.8305 68.1613L24.4142 69.3307L29.1267 72.8134L83.532 112.662C83.7108 112.802 83.9024 112.929 84.094 113.056L84.2983 113.196L84.426 113.285C84.5027 113.336 84.5665 113.386 84.6431 113.437C85.6904 114.124 86.7887 114.721 87.9253 115.204C88.0147 115.242 88.0914 115.268 88.1808 115.306L88.3468 115.369C88.8193 115.56 89.2536 115.712 89.6622 115.852C89.8283 115.903 90.007 115.954 90.1858 116.005L90.2625 116.03C90.6712 116.145 91.0798 116.259 91.5013 116.348C91.7184 116.399 91.9355 116.45 92.1526 116.488C92.5357 116.564 92.97 116.628 93.468 116.691L93.6724 116.717C93.8001 116.729 93.9278 116.755 94.0555 116.767C94.7579 116.831 95.3965 116.869 95.9967 116.869C96.597 116.869 97.2355 116.831 97.938 116.767C98.0657 116.767 98.1934 116.742 98.3211 116.717L98.5254 116.691C99.0235 116.628 99.445 116.564 99.8409 116.488C100.058 116.45 100.275 116.399 100.492 116.348C100.914 116.259 101.322 116.145 101.731 116.03L101.808 116.005C101.986 115.954 102.152 115.903 102.331 115.852C102.74 115.712 103.174 115.56 103.647 115.369L103.813 115.306C103.902 115.268 103.992 115.242 104.068 115.204C105.205 114.721 106.303 114.124 107.35 113.437C107.427 113.386 107.504 113.336 107.567 113.285L107.695 113.196L107.9 113.056C108.091 112.929 108.283 112.802 108.461 112.662L162.854 72.8134L167.567 69.3307C167.822 69.1654 168.065 68.9748 168.32 68.7841L168.524 68.6316L169.137 68.1867L168.959 67.9198L169.176 68.1486C169.687 67.7291 170.21 67.2588 170.721 66.7504C170.81 66.6614 170.9 66.5724 170.976 66.4708C171.028 66.4072 171.079 66.3564 171.143 66.2928C171.462 65.9496 171.807 65.581 172.126 65.187C172.241 65.0471 172.356 64.8946 172.458 64.7421L172.598 64.5514C172.854 64.2082 173.122 63.8523 173.352 63.4837C173.492 63.2676 173.62 63.0515 173.748 62.8355L173.799 62.7592C174.016 62.3906 174.22 62.0347 174.412 61.6534C174.54 61.3991 174.667 61.1322 174.795 60.8653C174.974 60.484 175.14 60.0899 175.293 59.6832C175.395 59.4162 175.497 59.1493 175.587 58.8697C175.74 58.4121 175.868 57.9672 175.957 57.5859L176.021 57.3698C176.072 57.1791 176.123 56.9885 176.174 56.7851C176.289 56.2894 176.366 55.781 176.43 55.3107L176.468 55.0564C176.494 54.9166 176.519 54.7768 176.532 54.6243C176.621 53.8362 176.66 53.1117 176.66 52.3872C176.66 49.2857 175.957 46.286 174.565 43.4642C171.091 36.397 164.054 31.999 156.175 31.999L156.187 32.0117Z" fill="black"/>
<path d="M156.186 160.797C144.986 160.797 135.867 151.722 135.867 140.574C135.867 129.427 144.986 120.352 156.186 120.352C167.387 120.352 176.505 129.427 176.505 140.574C176.505 151.722 167.387 160.797 156.186 160.797Z" fill="black"/>
<path d="M156.188 120.504C167.325 120.504 176.354 129.491 176.354 140.575C176.354 151.658 167.325 160.645 156.188 160.645C145.052 160.645 136.022 151.658 136.022 140.575C136.022 129.491 145.052 120.504 156.188 120.504ZM156.188 120.187C144.898 120.187 135.703 129.326 135.703 140.575C135.703 151.811 144.886 160.963 156.188 160.963C167.491 160.963 176.673 151.824 176.673 140.575C176.673 129.338 167.491 120.187 156.188 120.187Z" fill="black"/>
<path d="M35.8346 160.797C24.6343 160.797 15.5156 151.722 15.5156 140.574C15.5156 129.427 24.6343 120.352 35.8346 120.352C47.0349 120.352 56.1536 129.427 56.1536 140.574C56.1536 151.722 47.0349 160.797 35.8346 160.797Z" fill="black"/>
<path d="M35.8366 120.504C46.9731 120.504 56.0023 129.491 56.0023 140.575C56.0023 151.658 46.9731 160.645 35.8366 160.645C24.7001 160.645 15.6708 151.658 15.6708 140.575C15.6708 129.491 24.7001 120.504 35.8366 120.504ZM35.8366 120.187C24.5468 120.187 15.3516 129.326 15.3516 140.575C15.3516 146.015 17.4844 151.137 21.354 154.989C25.2237 158.84 30.3705 160.963 35.8366 160.963C47.1263 160.963 56.3216 151.824 56.3216 140.575C56.3216 129.338 47.1391 120.187 35.8366 120.187Z" fill="black"/>
<path d="M75.8487 96.4806C75.8487 107.564 84.878 116.551 96.0144 116.551C100.638 116.551 104.89 115 108.288 112.407L162.693 72.5588L167.405 69.0761L168.964 67.9321C173.472 64.246 176.345 58.6532 176.345 52.3995C176.345 41.3156 167.316 32.3291 156.18 32.3291C151.684 32.3291 147.546 33.7908 144.187 36.2567L144.111 36.3076L133.306 44.2391L84.3288 80.1218L83.9201 80.4141C79.016 84.0748 75.8359 89.9091 75.8359 96.4806H75.8487Z" fill="url(#paint1_linear_1125_92)"/>
<path d="M163.612 159.225C173.967 155.144 179.038 143.481 174.938 133.175C170.838 122.869 159.12 117.822 148.765 121.903C138.41 125.983 133.339 137.646 137.439 147.952C141.539 158.258 153.257 163.305 163.612 159.225Z" fill="url(#paint2_linear_1125_92)"/>
<path d="M163.604 71.0517C173.96 66.9712 179.03 55.3085 174.931 45.0023C170.831 34.6962 159.113 29.6493 148.757 33.7298C138.402 37.8103 133.331 49.473 137.431 59.7791C141.531 70.0853 153.249 75.1322 163.604 71.0517Z" fill="url(#paint3_linear_1125_92)"/>
<path d="M43.2685 159.227C53.6236 155.147 58.6945 143.484 54.5946 133.178C50.4947 122.872 38.7766 117.825 28.4215 121.906C18.0664 125.986 12.9955 137.649 17.0954 147.955C21.1953 158.261 32.9134 163.308 43.2685 159.227Z" fill="url(#paint4_linear_1125_92)"/>
<path d="M116.176 96.4806C116.176 107.564 107.147 116.551 96.0105 116.551C91.3874 116.551 87.1346 115 83.7374 112.407L29.3321 72.5588L24.6195 69.0761L23.0614 67.9321C18.5532 64.246 15.6797 58.6532 15.6797 52.3995C15.6797 41.3156 24.7089 32.3291 35.8454 32.3291C40.3409 32.3291 44.4787 33.7908 47.8376 36.2567L47.9142 36.3076L58.7186 44.2391L107.696 80.1218L108.105 80.4141C113.009 84.0748 116.189 89.9091 116.189 96.4806H116.176Z" fill="url(#paint5_linear_1125_92)"/>
<path d="M43.2004 70.8627C53.4953 66.7645 58.503 55.136 54.3853 44.8898C50.2676 34.6435 38.5839 29.6596 28.289 33.7578C17.9941 37.856 12.9865 49.4844 17.1041 59.7307C21.2218 69.9769 32.9055 74.9609 43.2004 70.8627Z" fill="url(#paint6_linear_1125_92)"/>
<defs>
<linearGradient id="paint0_linear_1125_92" x1="169.603" y1="68.5041" x2="165.567" y2="68.5041" gradientUnits="userSpaceOnUse">
<stop stop-color="#2E3A82"/>
<stop offset="0.1" stop-color="#343B82"/>
<stop offset="0.24" stop-color="#484083"/>
<stop offset="0.42" stop-color="#674884"/>
<stop offset="0.61" stop-color="#935386"/>
<stop offset="0.82" stop-color="#CB6188"/>
<stop offset="0.87" stop-color="#DB6589"/>
</linearGradient>
<linearGradient id="paint1_linear_1125_92" x1="176.358" y1="74.44" x2="75.8487" y2="74.44" gradientUnits="userSpaceOnUse">
<stop stop-color="#2E3A82"/>
<stop offset="0.14" stop-color="#313A82"/>
<stop offset="0.27" stop-color="#3D3D82"/>
<stop offset="0.4" stop-color="#504283"/>
<stop offset="0.53" stop-color="#6C4984"/>
<stop offset="0.66" stop-color="#8F5285"/>
<stop offset="0.78" stop-color="#B95C87"/>
<stop offset="0.87" stop-color="#DB6589"/>
</linearGradient>
<linearGradient id="paint2_linear_1125_92" x1="120.673" y1="140.58" x2="160.992" y2="140.58" gradientUnits="userSpaceOnUse">
<stop stop-color="#2E3A82"/>
<stop offset="0.07" stop-color="#4B4183"/>
<stop offset="0.16" stop-color="#714A84"/>
<stop offset="0.26" stop-color="#925286"/>
<stop offset="0.36" stop-color="#AC5987"/>
<stop offset="0.47" stop-color="#C15E87"/>
<stop offset="0.6" stop-color="#CF6288"/>
<stop offset="0.75" stop-color="#D86488"/>
<stop offset="1" stop-color="#DB6589"/>
</linearGradient>
<linearGradient id="paint3_linear_1125_92" x1="113.867" y1="52.4056" x2="174.862" y2="52.4056" gradientUnits="userSpaceOnUse">
<stop stop-color="#2E3A82"/>
<stop offset="0.06" stop-color="#4B4183"/>
<stop offset="0.15" stop-color="#714A84"/>
<stop offset="0.25" stop-color="#925286"/>
<stop offset="0.35" stop-color="#AC5987"/>
<stop offset="0.47" stop-color="#C15E87"/>
<stop offset="0.6" stop-color="#CF6288"/>
<stop offset="0.75" stop-color="#D86488"/>
<stop offset="1" stop-color="#DB6589"/>
</linearGradient>
<linearGradient id="paint4_linear_1125_92" x1="-0.956928" y1="140.565" x2="103.46" y2="140.565" gradientUnits="userSpaceOnUse">
<stop stop-color="#2E3A82"/>
<stop offset="0.1" stop-color="#343B82"/>
<stop offset="0.24" stop-color="#484083"/>
<stop offset="0.42" stop-color="#674884"/>
<stop offset="0.61" stop-color="#935386"/>
<stop offset="0.82" stop-color="#CB6188"/>
<stop offset="0.87" stop-color="#DB6589"/>
</linearGradient>
<linearGradient id="paint5_linear_1125_92" x1="15.6669" y1="74.44" x2="116.176" y2="74.44" gradientUnits="userSpaceOnUse">
<stop stop-color="#2E3A82"/>
<stop offset="0.11" stop-color="#333B82"/>
<stop offset="0.26" stop-color="#433F82"/>
<stop offset="0.42" stop-color="#5E4583"/>
<stop offset="0.59" stop-color="#834F85"/>
<stop offset="0.77" stop-color="#B25A87"/>
<stop offset="0.91" stop-color="#DB6589"/>
</linearGradient>
<linearGradient id="paint6_linear_1125_92" x1="15.6732" y1="52.3088" x2="55.8259" y2="52.3088" gradientUnits="userSpaceOnUse">
<stop stop-color="#2E3984"/>
<stop offset="0.1" stop-color="#343A84"/>
<stop offset="0.24" stop-color="#483F84"/>
<stop offset="0.42" stop-color="#674786"/>
<stop offset="0.61" stop-color="#935287"/>
<stop offset="0.82" stop-color="#CB6189"/>
<stop offset="0.87" stop-color="#DB658A"/>
</linearGradient>
</defs>
</svg>
